<svg xmlns="http://www.w3.org/2000/svg" xmlns:xlink="http://www.w3.org/1999/xlink" width="2250" zoomAndPan="magnify" viewBox="0 0 1687.5 599.999999" height="800" preserveAspectRatio="xMidYMid meet" version="1.0"><defs><g/></defs><path fill="#fefcfb" d="M 53.085938 184.425781 C 52.605469 184.621094 52.816406 185.777344 53.5 186.671875 C 53.859375 187.148438 54.273438 187.757812 54.414062 188.027344 C 54.558594 188.296875 55.011719 188.96875 55.425781 189.519531 C 55.84375 190.070312 56.179688 190.582031 56.179688 190.65625 C 56.179688 190.730469 56.535156 191.261719 56.96875 191.835938 C 57.398438 192.40625 57.753906 192.941406 57.753906 193.019531 C 57.753906 193.097656 58.152344 193.679688 58.636719 194.3125 C 59.121094 194.945312 59.519531 195.527344 59.519531 195.605469 C 59.519531 195.6875 59.859375 196.203125 60.277344 196.753906 C 60.691406 197.300781 61.179688 198.019531 61.359375 198.339844 C 61.695312 198.941406 62.429688 200.03125 63.839844 202 C 64.273438 202.609375 64.628906 203.164062 64.628906 203.238281 C 64.628906 203.308594 64.980469 203.835938 65.414062 204.40625 C 65.847656 204.980469 66.199219 205.511719 66.199219 205.59375 C 66.199219 205.671875 66.597656 206.253906 67.082031 206.886719 C 67.570312 207.515625 67.96875 208.09375 67.96875 208.167969 C 67.96875 208.246094 68.324219 208.804688 68.757812 209.414062 C 70.164062 211.382812 70.902344 212.472656 71.234375 213.070312 C 71.414062 213.394531 71.902344 214.109375 72.320312 214.660156 C 72.734375 215.210938 73.074219 215.726562 73.074219 215.808594 C 73.074219 215.886719 73.472656 216.46875 73.960938 217.101562 C 74.445312 217.730469 74.84375 218.3125 74.84375 218.394531 C 74.84375 218.472656 75.195312 219.007812 75.628906 219.578125 C 76.0625 220.152344 76.414062 220.675781 76.414062 220.75 C 76.414062 220.820312 76.746094 221.324219 77.152344 221.875 C 77.554688 222.421875 78.066406 223.160156 78.28125 223.515625 C 78.496094 223.871094 79.644531 225.585938 80.835938 227.328125 C 82.023438 229.066406 83.082031 230.640625 83.191406 230.820312 C 83.300781 231 83.699219 231.582031 84.074219 232.121094 C 84.453125 232.65625 84.851562 233.25 84.960938 233.441406 C 85.066406 233.632812 86.570312 235.875 88.300781 238.425781 C 90.027344 240.976562 91.53125 243.210938 91.636719 243.390625 C 91.746094 243.570312 92.144531 244.15625 92.523438 244.691406 C 92.902344 245.226562 93.296875 245.820312 93.40625 246.011719 C 93.515625 246.199219 95.015625 248.441406 96.746094 250.996094 C 98.472656 253.546875 99.976562 255.78125 100.085938 255.960938 C 100.195312 256.140625 100.589844 256.726562 100.96875 257.265625 C 101.347656 257.800781 101.746094 258.394531 101.851562 258.582031 C 101.960938 258.773438 103.464844 261.015625 105.191406 263.566406 C 106.921875 266.117188 108.421875 268.355469 108.53125 268.535156 C 108.640625 268.714844 109.039062 269.304688 109.417969 269.84375 C 110.214844 270.976562 116.6875 280.613281 116.976562 281.105469 C 117.085938 281.285156 117.484375 281.875 117.863281 282.414062 C 118.652344 283.535156 125.125 293.175781 125.425781 293.675781 C 125.535156 293.859375 125.898438 294.402344 126.238281 294.890625 C 126.578125 295.375 127.976562 297.453125 129.347656 299.507812 C 130.71875 301.558594 131.96875 303.378906 132.121094 303.546875 C 132.273438 303.71875 132.398438 303.917969 132.398438 303.992188 C 132.398438 304.0625 111.019531 304.121094 84.886719 304.121094 C 47.109375 304.121094 37.332031 304.171875 37.175781 304.367188 C 37.066406 304.503906 36.933594 305.054688 36.875 305.59375 C 36.816406 306.136719 36.410156 308.699219 35.972656 311.292969 C 35.53125 313.886719 34.675781 319.101562 34.074219 322.882812 C 32.785156 330.925781 31.152344 341.101562 29.464844 351.5625 C 28.800781 355.667969 27.691406 362.5625 27 366.882812 C 25.371094 377.035156 23.738281 387.183594 22.101562 397.332031 C 21.386719 401.761719 20.28125 408.613281 19.648438 412.554688 L 17.792969 424.101562 C 17.40625 426.511719 17.089844 429.140625 17.089844 429.945312 L 17.089844 431.414062 L 70.078125 431.460938 C 99.222656 431.488281 123.085938 431.507812 123.109375 431.507812 C 123.289062 431.476562 124.074219 427.078125 125.644531 417.273438 C 126.683594 410.785156 127.449219 406.015625 130.332031 388.101562 C 131.046875 383.671875 132.15625 376.773438 132.796875 372.777344 C 134.546875 361.898438 136.351562 350.679688 137.6875 342.378906 C 138.34375 338.300781 139.410156 331.671875 140.054688 327.644531 C 141.746094 317.117188 141.609375 317.78125 141.996094 318.316406 C 142.175781 318.5625 142.40625 318.910156 142.515625 319.09375 C 142.625 319.277344 144.125 321.515625 145.855469 324.070312 C 147.585938 326.621094 149.085938 328.859375 149.195312 329.039062 C 149.304688 329.21875 149.699219 329.804688 150.078125 330.339844 C 150.457031 330.875 150.855469 331.46875 150.960938 331.65625 C 151.070312 331.847656 152.574219 334.089844 154.300781 336.640625 C 156.03125 339.195312 157.535156 341.429688 157.640625 341.609375 C 157.75 341.789062 158.148438 342.375 158.527344 342.910156 C 158.902344 343.445312 159.300781 344.042969 159.410156 344.234375 C 159.753906 344.839844 164.671875 352.109375 165.445312 353.152344 C 165.851562 353.703125 166.1875 354.214844 166.1875 354.296875 C 166.1875 354.375 166.585938 354.957031 167.070312 355.589844 C 167.558594 356.222656 167.953125 356.804688 167.953125 356.882812 C 167.953125 356.960938 168.308594 357.496094 168.742188 358.066406 C 169.171875 358.640625 169.527344 359.167969 169.527344 359.238281 C 169.527344 359.308594 169.882812 359.863281 170.316406 360.472656 C 171.722656 362.445312 172.460938 363.53125 172.792969 364.132812 C 172.972656 364.457031 173.460938 365.171875 173.878906 365.722656 C 174.292969 366.273438 174.632812 366.789062 174.632812 366.867188 C 174.632812 366.949219 175.03125 367.53125 175.519531 368.160156 C 176.003906 368.792969 176.402344 369.375 176.402344 369.453125 C 176.402344 369.535156 176.753906 370.066406 177.1875 370.640625 C 177.621094 371.210938 177.972656 371.738281 177.972656 371.808594 C 177.972656 371.878906 178.328125 372.4375 178.761719 373.046875 C 180.171875 375.015625 180.90625 376.105469 181.242188 376.707031 C 181.421875 377.027344 181.910156 377.742188 182.324219 378.292969 C 182.742188 378.84375 183.082031 379.359375 183.082031 379.441406 C 183.082031 379.519531 183.476562 380.101562 183.964844 380.734375 C 184.449219 381.363281 184.847656 381.945312 184.847656 382.027344 C 184.847656 382.105469 185.203125 382.640625 185.632812 383.210938 C 186.066406 383.785156 186.421875 384.3125 186.421875 384.390625 C 186.421875 384.464844 186.757812 384.976562 187.171875 385.527344 C 187.589844 386.078125 188.042969 386.75 188.1875 387.019531 C 188.332031 387.289062 188.789062 387.960938 189.203125 388.511719 C 189.617188 389.058594 189.957031 389.574219 189.957031 389.648438 C 189.957031 389.722656 190.308594 390.253906 190.742188 390.828125 C 191.171875 391.398438 191.527344 391.933594 191.527344 392.011719 C 191.527344 392.089844 191.925781 392.671875 192.410156 393.304688 C 192.898438 393.9375 193.296875 394.515625 193.296875 394.589844 C 193.296875 394.664062 193.625 395.175781 194.03125 395.726562 C 194.4375 396.277344 194.855469 396.882812 194.964844 397.070312 C 195.074219 397.261719 196.574219 399.503906 198.304688 402.054688 C 200.03125 404.609375 201.535156 406.84375 201.644531 407.023438 C 201.753906 407.203125 202.148438 407.789062 202.527344 408.324219 C 202.90625 408.859375 203.304688 409.453125 203.410156 409.644531 C 203.519531 409.832031 205.023438 412.078125 206.75 414.628906 C 208.480469 417.179688 209.984375 419.414062 210.089844 419.59375 C 210.199219 419.773438 210.566406 420.320312 210.90625 420.804688 C 211.246094 421.292969 212.582031 423.28125 213.878906 425.226562 C 215.175781 427.171875 216.421875 428.929688 216.648438 429.132812 C 216.875 429.339844 217.335938 429.9375 217.671875 430.460938 L 218.285156 431.414062 L 345.945312 431.414062 L 345.328125 430.515625 C 344.988281 430.023438 344.761719 429.570312 344.824219 429.507812 C 344.886719 429.445312 344.671875 429.0625 344.351562 428.65625 C 344.03125 428.25 343.765625 427.855469 343.765625 427.777344 C 343.765625 427.699219 343.4375 427.1875 343.03125 426.636719 C 342.625 426.085938 342.207031 425.480469 342.097656 425.289062 C 341.988281 425.097656 340.488281 422.855469 338.757812 420.304688 C 337.027344 417.75 335.527344 415.515625 335.417969 415.335938 C 335.308594 415.160156 334.914062 414.574219 334.535156 414.039062 C 334.15625 413.5 333.757812 412.910156 333.652344 412.71875 C 333.542969 412.53125 332.835938 411.480469 332.078125 410.378906 C 330.738281 408.429688 330.34375 407.84375 329.132812 405.988281 C 328.808594 405.492188 328.167969 404.578125 327.714844 403.960938 C 327.257812 403.339844 326.882812 402.761719 326.878906 402.675781 C 326.875 402.589844 326.519531 402.050781 326.085938 401.480469 C 325.65625 400.90625 325.300781 400.375 325.300781 400.296875 C 325.300781 400.214844 324.902344 399.632812 324.417969 399.003906 C 323.933594 398.371094 323.535156 397.792969 323.535156 397.71875 C 323.535156 397.644531 323.179688 397.082031 322.742188 396.476562 C 321.335938 394.503906 320.601562 393.414062 320.265625 392.816406 C 320.085938 392.492188 319.597656 391.777344 319.183594 391.226562 C 318.765625 390.675781 318.425781 390.164062 318.425781 390.085938 C 318.425781 390.011719 318.074219 389.480469 317.640625 388.910156 C 317.207031 388.335938 316.855469 387.800781 316.855469 387.722656 C 316.855469 387.644531 316.457031 387.0625 315.972656 386.429688 C 315.484375 385.796875 315.085938 385.21875 315.085938 385.144531 C 315.085938 385.070312 314.730469 384.511719 314.296875 383.902344 C 312.890625 381.933594 312.152344 380.84375 311.820312 380.242188 C 311.640625 379.917969 311.152344 379.203125 310.734375 378.652344 C 310.320312 378.101562 309.980469 377.585938 309.980469 377.507812 C 309.980469 377.429688 309.582031 376.847656 309.097656 376.214844 C 308.609375 375.582031 308.210938 375 308.210938 374.921875 C 308.210938 374.84375 307.859375 374.308594 307.425781 373.738281 C 306.992188 373.164062 306.640625 372.636719 306.640625 372.566406 C 306.640625 372.496094 306.308594 371.988281 305.902344 371.441406 C 305.5 370.894531 304.988281 370.15625 304.773438 369.800781 C 304.558594 369.445312 303.410156 367.730469 302.21875 365.988281 C 301.03125 364.246094 299.972656 362.675781 299.863281 362.496094 C 299.753906 362.316406 299.355469 361.730469 298.980469 361.195312 C 298.601562 360.660156 298.203125 360.066406 298.09375 359.875 C 297.988281 359.6875 296.484375 357.445312 294.753906 354.894531 C 293.027344 352.339844 291.523438 350.105469 291.417969 349.925781 C 291.308594 349.746094 290.910156 349.160156 290.53125 348.625 C 290.152344 348.085938 289.757812 347.492188 289.648438 347.304688 C 289.539062 347.113281 288.039062 344.871094 286.308594 342.320312 C 284.582031 339.769531 283.078125 337.535156 282.96875 337.351562 C 282.863281 337.171875 282.464844 336.585938 282.085938 336.050781 C 281.707031 335.515625 281.308594 334.921875 281.203125 334.730469 C 281.09375 334.542969 279.589844 332.300781 277.863281 329.75 C 276.132812 327.195312 274.632812 324.960938 274.523438 324.78125 C 274.414062 324.601562 274.015625 324.011719 273.636719 323.472656 C 272.851562 322.355469 266.375 312.710938 266.074219 312.210938 C 265.96875 312.03125 265.59375 311.476562 265.25 310.980469 C 264.160156 309.429688 261.851562 305.90625 261.851562 305.796875 C 261.851562 305.742188 283.683594 305.695312 310.363281 305.695312 L 358.875 305.695312 L 358.980469 305.054688 C 359.042969 304.703125 359.308594 303.179688 359.574219 301.667969 C 359.835938 300.152344 360.597656 295.511719 361.257812 291.355469 C 362.511719 283.46875 364.113281 273.492188 366.15625 260.808594 C 367.640625 251.628906 369.546875 239.761719 371.074219 230.261719 C 371.707031 226.316406 372.808594 219.46875 373.523438 215.039062 C 374.238281 210.609375 375.34375 203.710938 375.980469 199.714844 C 376.621094 195.71875 377.363281 191.121094 377.628906 189.5 C 377.898438 187.878906 378.144531 186.066406 378.179688 185.472656 L 378.242188 184.394531 L 324.375 184.34375 L 270.511719 184.292969 L 270.320312 185.03125 C 270.21875 185.4375 270.042969 186.121094 269.933594 186.554688 C 269.738281 187.316406 269.390625 189.398438 267.738281 199.714844 C 266.597656 206.84375 264.609375 219.226562 263.222656 227.804688 C 262.5625 231.910156 261.453125 238.804688 260.757812 243.128906 C 260.066406 247.449219 258.964844 254.300781 258.3125 258.351562 C 255.984375 272.785156 254.589844 281.503906 253.796875 286.542969 C 253.355469 289.351562 252.929688 291.808594 252.851562 292 C 252.742188 292.285156 252.546875 292.101562 251.832031 291.046875 C 251.347656 290.328125 250.863281 289.59375 250.753906 289.417969 C 250.644531 289.238281 250.246094 288.65625 249.871094 288.121094 C 249.492188 287.585938 249.09375 286.988281 248.984375 286.800781 C 248.878906 286.609375 247.375 284.367188 245.644531 281.8125 C 243.917969 279.261719 242.414062 277.027344 242.308594 276.847656 C 242.199219 276.667969 241.800781 276.085938 241.421875 275.546875 C 241.042969 275.011719 240.648438 274.417969 240.539062 274.230469 C 240.429688 274.039062 238.929688 271.796875 237.199219 269.246094 C 235.46875 266.695312 233.96875 264.457031 233.859375 264.277344 C 233.75 264.097656 233.355469 263.511719 232.976562 262.976562 C 232.597656 262.441406 232.199219 261.847656 232.09375 261.65625 C 231.984375 261.46875 230.480469 259.226562 228.753906 256.671875 C 227.023438 254.121094 225.519531 251.886719 225.414062 251.707031 C 225.304688 251.527344 224.90625 250.941406 224.527344 250.40625 C 224.152344 249.867188 223.753906 249.273438 223.644531 249.082031 C 223.300781 248.476562 218.382812 241.207031 217.609375 240.164062 C 217.203125 239.613281 216.867188 239.097656 216.867188 239.019531 C 216.867188 238.941406 216.46875 238.359375 215.984375 237.726562 C 215.496094 237.09375 215.101562 236.511719 215.101562 236.433594 C 215.101562 236.355469 214.746094 235.820312 214.3125 235.246094 C 213.882812 234.675781 213.527344 234.148438 213.527344 234.078125 C 213.527344 234.007812 213.171875 233.449219 212.738281 232.839844 C 211.332031 230.871094 210.59375 229.78125 210.261719 229.183594 C 210.082031 228.859375 209.59375 228.144531 209.175781 227.59375 C 208.761719 227.042969 208.421875 226.527344 208.421875 226.445312 C 208.421875 226.367188 208.023438 225.785156 207.539062 225.152344 C 207.050781 224.523438 206.652344 223.941406 206.652344 223.859375 C 206.652344 223.78125 206.300781 223.25 205.867188 222.675781 C 205.433594 222.101562 205.082031 221.574219 205.082031 221.496094 C 205.082031 221.421875 204.742188 220.910156 204.324219 220.359375 C 203.910156 219.808594 203.421875 219.09375 203.242188 218.769531 C 202.910156 218.167969 202.171875 217.082031 200.765625 215.109375 C 200.328125 214.5 199.972656 213.941406 199.972656 213.867188 C 199.972656 213.792969 199.578125 213.214844 199.089844 212.582031 C 198.605469 211.949219 198.207031 211.367188 198.207031 211.289062 C 198.207031 211.210938 197.851562 210.675781 197.421875 210.105469 C 196.988281 209.53125 196.636719 209 196.636719 208.925781 C 196.636719 208.847656 196.296875 208.335938 195.882812 207.789062 C 195.464844 207.238281 195.011719 206.566406 194.867188 206.296875 C 194.722656 206.027344 194.265625 205.355469 193.851562 204.804688 C 193.4375 204.253906 193.097656 203.742188 193.097656 203.667969 C 193.097656 203.589844 192.746094 203.0625 192.3125 202.488281 C 191.882812 201.914062 191.527344 201.382812 191.527344 201.304688 C 191.527344 201.222656 191.128906 200.640625 190.644531 200.011719 C 190.15625 199.378906 189.757812 198.800781 189.757812 198.726562 C 189.757812 198.652344 189.429688 198.140625 189.023438 197.589844 C 188.617188 197.039062 188.199219 196.433594 188.089844 196.242188 C 187.410156 195.054688 182.289062 187.609375 181.757812 187.046875 C 181.402344 186.667969 180.832031 185.894531 180.484375 185.328125 L 179.855469 184.296875 L 116.59375 184.308594 C 81.800781 184.320312 53.222656 184.371094 53.085938 184.425781 " fill-opacity="1" fill-rule="evenodd"/><g fill="#fefcfb" fill-opacity="1"><g transform="translate(438.553656, 323.436449)"><g><path d="M 14.015625 0 L 14.015625 -145.09375 L 67.96875 -145.09375 C 77.832031 -145.09375 86.5625 -143.304688 94.15625 -139.734375 C 101.75 -136.160156 107.6875 -130.960938 111.96875 -124.140625 C 116.257812 -117.328125 118.40625 -109.054688 118.40625 -99.328125 C 118.40625 -89.328125 116.035156 -80.820312 111.296875 -73.8125 C 106.554688 -66.800781 100.160156 -61.609375 92.109375 -58.234375 L 125.421875 0 L 95.421875 0 L 59.78125 -63.6875 L 76.921875 -53.5625 L 40.515625 -53.5625 L 40.515625 0 Z M 40.515625 -76.921875 L 68.359375 -76.921875 C 73.160156 -76.921875 77.3125 -77.863281 80.8125 -79.75 C 84.320312 -81.632812 87.050781 -84.265625 89 -87.640625 C 90.945312 -91.015625 91.921875 -94.910156 91.921875 -99.328125 C 91.921875 -103.867188 90.945312 -107.796875 89 -111.109375 C 87.050781 -114.421875 84.320312 -117.015625 80.8125 -118.890625 C 77.3125 -120.773438 73.160156 -121.71875 68.359375 -121.71875 L 40.515625 -121.71875 Z M 40.515625 -76.921875 "/></g></g></g><g fill="#fefcfb" fill-opacity="1"><g transform="translate(564.163696, 323.436449)"><g><path d="M 23.953125 0 L 23.953125 -27.265625 L 49.65625 -27.265625 L 49.65625 0 Z M 23.953125 0 "/></g></g></g><g fill="#fefcfb" fill-opacity="1"><g transform="translate(634.661019, 323.436449)"><g><path d="M 2.140625 0 L 52.1875 -145.09375 L 86.46875 -145.09375 L 136.515625 0 L 107.703125 0 L 97.375 -31.15625 L 41.28125 -31.15625 L 30.765625 0 Z M 48.875 -54.53125 L 89.78125 -54.53125 L 65.625 -126.78125 L 73.03125 -126.78125 Z M 48.875 -54.53125 "/></g></g></g><g fill="#fefcfb" fill-opacity="1"><g transform="translate(770.203019, 323.436449)"><g><path d="M 23.953125 0 L 23.953125 -27.265625 L 49.65625 -27.265625 L 49.65625 0 Z M 23.953125 0 "/></g></g></g><g fill="#fefcfb" fill-opacity="1"><g transform="translate(840.700351, 323.436449)"><g/></g></g><g fill="#fefcfb" fill-opacity="1"><g transform="translate(872.248771, 323.436449)"><g><path d="M 14.015625 0 L 14.015625 -145.09375 L 34.671875 -145.09375 L 114.515625 -37.59375 L 103.796875 -35.4375 L 103.796875 -145.09375 L 130.28125 -145.09375 L 130.28125 0 L 109.453125 0 L 30.765625 -108.28125 L 40.515625 -110.421875 L 40.515625 0 Z M 14.015625 0 "/></g></g></g><g fill="#fefcfb" fill-opacity="1"><g transform="translate(1013.438392, 323.436449)"><g><path d="M 85.5 2.34375 C 74.851562 2.34375 64.921875 0.460938 55.703125 -3.296875 C 46.484375 -7.066406 38.429688 -12.328125 31.546875 -19.078125 C 24.671875 -25.835938 19.316406 -33.789062 15.484375 -42.9375 C 11.648438 -52.09375 9.734375 -61.992188 9.734375 -72.640625 C 9.734375 -83.421875 11.613281 -93.351562 15.375 -102.4375 C 19.144531 -111.53125 24.46875 -119.453125 31.34375 -126.203125 C 38.226562 -132.953125 46.28125 -138.175781 55.5 -141.875 C 64.71875 -145.570312 74.71875 -147.421875 85.5 -147.421875 C 96.269531 -147.421875 106.265625 -145.535156 115.484375 -141.765625 C 124.703125 -138.003906 132.75 -132.78125 139.625 -126.09375 C 146.507812 -119.414062 151.867188 -111.53125 155.703125 -102.4375 C 159.535156 -93.351562 161.453125 -83.421875 161.453125 -72.640625 C 161.453125 -61.992188 159.503906 -52.09375 155.609375 -42.9375 C 151.710938 -33.789062 146.320312 -25.835938 139.4375 -19.078125 C 132.5625 -12.328125 124.546875 -7.066406 115.390625 -3.296875 C 106.234375 0.460938 96.269531 2.34375 85.5 2.34375 Z M 85.5 -21.8125 C 92.632812 -21.8125 99.1875 -23.078125 105.15625 -25.609375 C 111.132812 -28.140625 116.363281 -31.675781 120.84375 -36.21875 C 125.320312 -40.769531 128.757812 -46.160156 131.15625 -52.390625 C 133.5625 -58.617188 134.765625 -65.367188 134.765625 -72.640625 C 134.765625 -79.910156 133.5625 -86.628906 131.15625 -92.796875 C 128.757812 -98.960938 125.320312 -104.347656 120.84375 -108.953125 C 116.363281 -113.566406 111.132812 -117.109375 105.15625 -119.578125 C 99.1875 -122.046875 92.632812 -123.28125 85.5 -123.28125 C 78.488281 -123.28125 71.992188 -122.046875 66.015625 -119.578125 C 60.046875 -117.109375 54.820312 -113.566406 50.34375 -108.953125 C 45.863281 -104.347656 42.390625 -98.960938 39.921875 -92.796875 C 37.453125 -86.628906 36.21875 -79.910156 36.21875 -72.640625 C 36.21875 -65.367188 37.453125 -58.617188 39.921875 -52.390625 C 42.390625 -46.160156 45.863281 -40.769531 50.34375 -36.21875 C 54.820312 -31.675781 60.046875 -28.140625 66.015625 -25.609375 C 71.992188 -23.078125 78.488281 -21.8125 85.5 -21.8125 Z M 85.5 -21.8125 "/></g></g></g><g fill="#fefcfb" fill-opacity="1"><g transform="translate(1181.307984, 323.436449)"><g><path d="M 14.015625 0 L 14.015625 -145.09375 L 40.515625 -145.09375 L 40.515625 -23.375 L 102.640625 -23.375 L 102.640625 0 Z M 14.015625 0 "/></g></g></g><g fill="#fefcfb" fill-opacity="1"><g transform="translate(1283.938196, 323.436449)"><g><path d="M 14.015625 0 L 14.015625 -145.09375 L 40.515625 -145.09375 L 40.515625 0 Z M 14.015625 0 "/></g></g></g><g fill="#fefcfb" fill-opacity="1"><g transform="translate(1335.155786, 323.436449)"><g><path d="M 14.015625 0 L 14.015625 -145.09375 L 61.34375 -145.09375 C 76.664062 -145.09375 90.003906 -142.007812 101.359375 -135.84375 C 112.722656 -129.675781 121.519531 -121.171875 127.75 -110.328125 C 133.988281 -99.484375 137.109375 -86.921875 137.109375 -72.640625 C 137.109375 -58.484375 133.988281 -45.921875 127.75 -34.953125 C 121.519531 -23.984375 112.722656 -15.414062 101.359375 -9.25 C 90.003906 -3.082031 76.664062 0 61.34375 0 Z M 40.515625 -23.375 L 61.9375 -23.375 C 71.800781 -23.375 80.332031 -25.414062 87.53125 -29.5 C 94.738281 -33.59375 100.351562 -39.304688 104.375 -46.640625 C 108.40625 -53.972656 110.421875 -62.640625 110.421875 -72.640625 C 110.421875 -82.765625 108.40625 -91.460938 104.375 -98.734375 C 100.351562 -106.003906 94.738281 -111.648438 87.53125 -115.671875 C 80.332031 -119.703125 71.800781 -121.71875 61.9375 -121.71875 L 40.515625 -121.71875 Z M 40.515625 -23.375 "/></g></g></g><g fill="#fefcfb" fill-opacity="1"><g transform="translate(1476.150675, 323.436449)"><g><path d="M 85.5 2.34375 C 74.851562 2.34375 64.921875 0.460938 55.703125 -3.296875 C 46.484375 -7.066406 38.429688 -12.328125 31.546875 -19.078125 C 24.671875 -25.835938 19.316406 -33.789062 15.484375 -42.9375 C 11.648438 -52.09375 9.734375 -61.992188 9.734375 -72.640625 C 9.734375 -83.421875 11.613281 -93.351562 15.375 -102.4375 C 19.144531 -111.53125 24.46875 -119.453125 31.34375 -126.203125 C 38.226562 -132.953125 46.28125 -138.175781 55.5 -141.875 C 64.71875 -145.570312 74.71875 -147.421875 85.5 -147.421875 C 96.269531 -147.421875 106.265625 -145.535156 115.484375 -141.765625 C 124.703125 -138.003906 132.75 -132.78125 139.625 -126.09375 C 146.507812 -119.414062 151.867188 -111.53125 155.703125 -102.4375 C 159.535156 -93.351562 161.453125 -83.421875 161.453125 -72.640625 C 161.453125 -61.992188 159.503906 -52.09375 155.609375 -42.9375 C 151.710938 -33.789062 146.320312 -25.835938 139.4375 -19.078125 C 132.5625 -12.328125 124.546875 -7.066406 115.390625 -3.296875 C 106.234375 0.460938 96.269531 2.34375 85.5 2.34375 Z M 85.5 -21.8125 C 92.632812 -21.8125 99.1875 -23.078125 105.15625 -25.609375 C 111.132812 -28.140625 116.363281 -31.675781 120.84375 -36.21875 C 125.320312 -40.769531 128.757812 -46.160156 131.15625 -52.390625 C 133.5625 -58.617188 134.765625 -65.367188 134.765625 -72.640625 C 134.765625 -79.910156 133.5625 -86.628906 131.15625 -92.796875 C 128.757812 -98.960938 125.320312 -104.347656 120.84375 -108.953125 C 116.363281 -113.566406 111.132812 -117.109375 105.15625 -119.578125 C 99.1875 -122.046875 92.632812 -123.28125 85.5 -123.28125 C 78.488281 -123.28125 71.992188 -122.046875 66.015625 -119.578125 C 60.046875 -117.109375 54.820312 -113.566406 50.34375 -108.953125 C 45.863281 -104.347656 42.390625 -98.960938 39.921875 -92.796875 C 37.453125 -86.628906 36.21875 -79.910156 36.21875 -72.640625 C 36.21875 -65.367188 37.453125 -58.617188 39.921875 -52.390625 C 42.390625 -46.160156 45.863281 -40.769531 50.34375 -36.21875 C 54.820312 -31.675781 60.046875 -28.140625 66.015625 -25.609375 C 71.992188 -23.078125 78.488281 -21.8125 85.5 -21.8125 Z M 85.5 -21.8125 "/></g></g></g><g fill="#fefcfb" fill-opacity="1"><g transform="translate(440.268524, 445.869988)"><g><path d="M 32.921875 0.921875 C 28.871094 0.921875 25.152344 0.191406 21.769531 -1.269531 C 18.382812 -2.730469 15.449219 -4.78125 12.960938 -7.421875 C 10.472656 -10.0625 8.539062 -13.179688 7.152344 -16.769531 C 5.769531 -20.359375 5.078125 -24.308594 5.078125 -28.613281 C 5.078125 -32.921875 5.769531 -36.871094 7.152344 -40.460938 C 8.539062 -44.050781 10.472656 -47.179688 12.960938 -49.84375 C 15.449219 -52.511719 18.382812 -54.574219 21.769531 -56.035156 C 25.152344 -57.496094 28.871094 -58.230469 32.921875 -58.230469 C 36.820312 -58.230469 40.320312 -57.535156 43.421875 -56.152344 C 46.523438 -54.765625 49.140625 -52.984375 51.265625 -50.804688 C 53.394531 -48.625 54.921875 -46.332031 55.84375 -43.921875 L 50.074219 -41.382812 C 48.640625 -44.714844 46.445312 -47.394531 43.5 -49.421875 C 40.550781 -51.445312 37.023438 -52.460938 32.921875 -52.460938 C 28.71875 -52.460938 24.972656 -51.460938 21.691406 -49.460938 C 18.410156 -47.460938 15.84375 -44.679688 14 -41.113281 C 12.152344 -37.550781 11.230469 -33.382812 11.230469 -28.613281 C 11.230469 -23.898438 12.152344 -19.742188 14 -16.152344 C 15.84375 -12.5625 18.410156 -9.78125 21.691406 -7.808594 C 24.972656 -5.832031 28.71875 -4.847656 32.921875 -4.847656 C 37.023438 -4.847656 40.550781 -5.847656 43.5 -7.847656 C 46.445312 -9.847656 48.640625 -12.511719 50.074219 -15.84375 L 55.84375 -13.308594 C 54.921875 -10.949219 53.394531 -8.679688 51.265625 -6.5 C 49.140625 -4.320312 46.523438 -2.539062 43.421875 -1.152344 C 40.320312 0.230469 36.820312 0.921875 32.921875 0.921875 Z M 32.921875 0.921875 "/></g></g></g><g fill="#fefcfb" fill-opacity="1"><g transform="translate(500.339658, 445.869988)"><g><path d="M 33.769531 0.921875 C 29.769531 0.921875 26.039062 0.191406 22.574219 -1.269531 C 19.113281 -2.730469 16.078125 -4.78125 13.460938 -7.421875 C 10.847656 -10.0625 8.792969 -13.191406 7.308594 -16.808594 C 5.820312 -20.421875 5.078125 -24.382812 5.078125 -28.691406 C 5.078125 -33 5.820312 -36.960938 7.308594 -40.574219 C 8.792969 -44.191406 10.847656 -47.320312 13.460938 -49.960938 C 16.078125 -52.601562 19.113281 -54.640625 22.574219 -56.074219 C 26.039062 -57.511719 29.769531 -58.230469 33.769531 -58.230469 C 37.769531 -58.230469 41.5 -57.496094 44.960938 -56.035156 C 48.421875 -54.574219 51.460938 -52.523438 54.074219 -49.882812 C 56.691406 -47.242188 58.742188 -44.125 60.230469 -40.535156 C 61.714844 -36.949219 62.460938 -33 62.460938 -28.691406 C 62.460938 -24.382812 61.714844 -20.421875 60.230469 -16.808594 C 58.742188 -13.191406 56.691406 -10.0625 54.074219 -7.421875 C 51.460938 -4.78125 48.421875 -2.730469 44.960938 -1.269531 C 41.5 0.191406 37.769531 0.921875 33.769531 0.921875 Z M 33.769531 -4.847656 C 37.101562 -4.847656 40.140625 -5.460938 42.882812 -6.691406 C 45.625 -7.921875 48 -9.640625 50 -11.847656 C 52 -14.050781 53.550781 -16.589844 54.652344 -19.460938 C 55.753906 -22.332031 56.304688 -25.410156 56.304688 -28.691406 C 56.304688 -31.921875 55.753906 -34.972656 54.652344 -37.84375 C 53.550781 -40.714844 52 -43.253906 50 -45.460938 C 48 -47.664062 45.625 -49.382812 42.882812 -50.613281 C 40.140625 -51.84375 37.101562 -52.460938 33.769531 -52.460938 C 30.433594 -52.460938 27.394531 -51.84375 24.652344 -50.613281 C 21.910156 -49.382812 19.539062 -47.664062 17.539062 -45.460938 C 15.539062 -43.253906 13.988281 -40.714844 12.882812 -37.84375 C 11.78125 -34.972656 11.230469 -31.921875 11.230469 -28.691406 C 11.230469 -25.410156 11.78125 -22.332031 12.882812 -19.460938 C 13.988281 -16.589844 15.539062 -14.050781 17.539062 -11.847656 C 19.539062 -9.640625 21.921875 -7.921875 24.691406 -6.691406 C 27.460938 -5.460938 30.484375 -4.847656 33.769531 -4.847656 Z M 33.769531 -4.847656 "/></g></g></g><g fill="#fefcfb" fill-opacity="1"><g transform="translate(567.871617, 445.869988)"><g><path d="M 6.769531 0 L 6.769531 -57.304688 L 12.152344 -57.304688 L 45.769531 -9.078125 L 43.691406 -9.078125 L 43.691406 -57.304688 L 49.84375 -57.304688 L 49.84375 0 L 44.460938 0 L 10.847656 -48.535156 L 12.921875 -48.535156 L 12.921875 0 Z M 6.769531 0 "/></g></g></g><g fill="#fefcfb" fill-opacity="1"><g transform="translate(624.481555, 445.869988)"><g><path d="M 26.074219 0.921875 C 22.433594 0.921875 19.128906 0.230469 16.152344 -1.152344 C 13.179688 -2.539062 10.667969 -4.398438 8.613281 -6.730469 C 6.5625 -9.0625 5.101562 -11.640625 4.230469 -14.460938 L 9.769531 -16.539062 C 11.101562 -12.640625 13.179688 -9.679688 16 -7.652344 C 18.820312 -5.628906 22.179688 -4.613281 26.074219 -4.613281 C 28.539062 -4.613281 30.703125 -5.011719 32.574219 -5.808594 C 34.449219 -6.601562 35.894531 -7.71875 36.921875 -9.152344 C 37.949219 -10.589844 38.460938 -12.257812 38.460938 -14.152344 C 38.460938 -16.972656 37.691406 -19.152344 36.152344 -20.691406 C 34.613281 -22.230469 32.410156 -23.410156 29.539062 -24.230469 L 19.230469 -27.308594 C 15.179688 -28.484375 12.0625 -30.460938 9.882812 -33.230469 C 7.703125 -36 6.613281 -39.152344 6.613281 -42.691406 C 6.613281 -45.714844 7.359375 -48.394531 8.847656 -50.730469 C 10.332031 -53.0625 12.371094 -54.894531 14.960938 -56.230469 C 17.550781 -57.5625 20.488281 -58.230469 23.769531 -58.230469 C 27.203125 -58.230469 30.292969 -57.601562 33.039062 -56.34375 C 35.78125 -55.085938 38.101562 -53.433594 40 -51.382812 C 41.894531 -49.332031 43.253906 -47.050781 44.074219 -44.535156 L 38.691406 -42.382812 C 37.460938 -45.769531 35.550781 -48.332031 32.960938 -50.074219 C 30.371094 -51.820312 27.332031 -52.691406 23.84375 -52.691406 C 21.640625 -52.691406 19.703125 -52.304688 18.039062 -51.535156 C 16.371094 -50.765625 15.078125 -49.664062 14.152344 -48.230469 C 13.230469 -46.792969 12.769531 -45.101562 12.769531 -43.152344 C 12.769531 -40.792969 13.511719 -38.679688 15 -36.804688 C 16.488281 -34.933594 18.769531 -33.539062 21.84375 -32.613281 L 30.921875 -29.921875 C 35.433594 -28.589844 38.84375 -26.664062 41.152344 -24.152344 C 43.460938 -21.640625 44.613281 -18.488281 44.613281 -14.691406 C 44.613281 -11.613281 43.832031 -8.910156 42.269531 -6.578125 C 40.703125 -4.242188 38.523438 -2.410156 35.730469 -1.078125 C 32.933594 0.257812 29.71875 0.921875 26.074219 0.921875 Z M 26.074219 0.921875 "/></g></g></g><g fill="#fefcfb" fill-opacity="1"><g transform="translate(674.169068, 445.869988)"><g><path d="M 16.691406 0 L 16.691406 -51.535156 L 0.847656 -51.535156 L 0.847656 -57.304688 L 38.539062 -57.304688 L 38.539062 -51.535156 L 22.84375 -51.535156 L 22.84375 0 Z M 16.691406 0 "/></g></g></g><g fill="#fefcfb" fill-opacity="1"><g transform="translate(713.549889, 445.869988)"><g><path d="M 6.769531 0 L 6.769531 -57.304688 L 26.460938 -57.304688 C 30.203125 -57.304688 33.484375 -56.574219 36.304688 -55.113281 C 39.125 -53.652344 41.320312 -51.601562 42.882812 -48.960938 C 44.445312 -46.320312 45.230469 -43.253906 45.230469 -39.769531 C 45.230469 -35.714844 44.164062 -32.253906 42.035156 -29.382812 C 39.910156 -26.511719 37.023438 -24.484375 33.382812 -23.308594 L 46.769531 0 L 39.535156 0 L 25.539062 -24.691406 L 29.691406 -22.308594 L 12.921875 -22.308594 L 12.921875 0 Z M 12.921875 -28.074219 L 26.769531 -28.074219 C 29.230469 -28.074219 31.382812 -28.550781 33.230469 -29.5 C 35.074219 -30.449219 36.511719 -31.804688 37.539062 -33.574219 C 38.5625 -35.34375 39.074219 -37.433594 39.074219 -39.84375 C 39.074219 -42.253906 38.5625 -44.332031 37.539062 -46.074219 C 36.511719 -47.820312 35.074219 -49.164062 33.230469 -50.113281 C 31.382812 -51.0625 29.230469 -51.535156 26.769531 -51.535156 L 12.921875 -51.535156 Z M 12.921875 -28.074219 "/></g></g></g><g fill="#fefcfb" fill-opacity="1"><g transform="translate(762.852845, 445.869988)"><g><path d="M 26.921875 0.921875 C 22.871094 0.921875 19.308594 0.078125 16.230469 -1.617188 C 13.152344 -3.308594 10.769531 -5.628906 9.078125 -8.578125 C 7.382812 -11.523438 6.539062 -14.898438 6.539062 -18.691406 L 6.539062 -57.304688 L 12.691406 -57.304688 L 12.691406 -18.691406 C 12.691406 -15.921875 13.292969 -13.5 14.5 -11.421875 C 15.703125 -9.347656 17.371094 -7.730469 19.5 -6.578125 C 21.628906 -5.421875 24.101562 -4.847656 26.921875 -4.847656 C 29.742188 -4.847656 32.21875 -5.421875 34.34375 -6.578125 C 36.472656 -7.730469 38.140625 -9.347656 39.34375 -11.421875 C 40.550781 -13.5 41.152344 -15.921875 41.152344 -18.691406 L 41.152344 -57.304688 L 47.304688 -57.304688 L 47.304688 -18.691406 C 47.304688 -14.898438 46.460938 -11.523438 44.769531 -8.578125 C 43.074219 -5.628906 40.703125 -3.308594 37.652344 -1.617188 C 34.601562 0.078125 31.023438 0.921875 26.921875 0.921875 Z M 26.921875 0.921875 "/></g></g></g><g fill="#fefcfb" fill-opacity="1"><g transform="translate(816.69381, 445.869988)"><g><path d="M 32.921875 0.921875 C 28.871094 0.921875 25.152344 0.191406 21.769531 -1.269531 C 18.382812 -2.730469 15.449219 -4.78125 12.960938 -7.421875 C 10.472656 -10.0625 8.539062 -13.179688 7.152344 -16.769531 C 5.769531 -20.359375 5.078125 -24.308594 5.078125 -28.613281 C 5.078125 -32.921875 5.769531 -36.871094 7.152344 -40.460938 C 8.539062 -44.050781 10.472656 -47.179688 12.960938 -49.84375 C 15.449219 -52.511719 18.382812 -54.574219 21.769531 -56.035156 C 25.152344 -57.496094 28.871094 -58.230469 32.921875 -58.230469 C 36.820312 -58.230469 40.320312 -57.535156 43.421875 -56.152344 C 46.523438 -54.765625 49.140625 -52.984375 51.265625 -50.804688 C 53.394531 -48.625 54.921875 -46.332031 55.84375 -43.921875 L 50.074219 -41.382812 C 48.640625 -44.714844 46.445312 -47.394531 43.5 -49.421875 C 40.550781 -51.445312 37.023438 -52.460938 32.921875 -52.460938 C 28.71875 -52.460938 24.972656 -51.460938 21.691406 -49.460938 C 18.410156 -47.460938 15.84375 -44.679688 14 -41.113281 C 12.152344 -37.550781 11.230469 -33.382812 11.230469 -28.613281 C 11.230469 -23.898438 12.152344 -19.742188 14 -16.152344 C 15.84375 -12.5625 18.410156 -9.78125 21.691406 -7.808594 C 24.972656 -5.832031 28.71875 -4.847656 32.921875 -4.847656 C 37.023438 -4.847656 40.550781 -5.847656 43.5 -7.847656 C 46.445312 -9.847656 48.640625 -12.511719 50.074219 -15.84375 L 55.84375 -13.308594 C 54.921875 -10.949219 53.394531 -8.679688 51.265625 -6.5 C 49.140625 -4.320312 46.523438 -2.539062 43.421875 -1.152344 C 40.320312 0.230469 36.820312 0.921875 32.921875 0.921875 Z M 32.921875 0.921875 "/></g></g></g><g fill="#fefcfb" fill-opacity="1"><g transform="translate(876.764925, 445.869988)"><g><path d="M 16.691406 0 L 16.691406 -51.535156 L 0.847656 -51.535156 L 0.847656 -57.304688 L 38.539062 -57.304688 L 38.539062 -51.535156 L 22.84375 -51.535156 L 22.84375 0 Z M 16.691406 0 "/></g></g></g><g fill="#fefcfb" fill-opacity="1"><g transform="translate(916.145746, 445.869988)"><g><path d="M 6.769531 -57.304688 L 12.921875 -57.304688 L 12.921875 0 L 6.769531 0 Z M 6.769531 -57.304688 "/></g></g></g><g fill="#fefcfb" fill-opacity="1"><g transform="translate(935.836156, 445.869988)"><g><path d="M 33.769531 0.921875 C 29.769531 0.921875 26.039062 0.191406 22.574219 -1.269531 C 19.113281 -2.730469 16.078125 -4.78125 13.460938 -7.421875 C 10.847656 -10.0625 8.792969 -13.191406 7.308594 -16.808594 C 5.820312 -20.421875 5.078125 -24.382812 5.078125 -28.691406 C 5.078125 -33 5.820312 -36.960938 7.308594 -40.574219 C 8.792969 -44.191406 10.847656 -47.320312 13.460938 -49.960938 C 16.078125 -52.601562 19.113281 -54.640625 22.574219 -56.074219 C 26.039062 -57.511719 29.769531 -58.230469 33.769531 -58.230469 C 37.769531 -58.230469 41.5 -57.496094 44.960938 -56.035156 C 48.421875 -54.574219 51.460938 -52.523438 54.074219 -49.882812 C 56.691406 -47.242188 58.742188 -44.125 60.230469 -40.535156 C 61.714844 -36.949219 62.460938 -33 62.460938 -28.691406 C 62.460938 -24.382812 61.714844 -20.421875 60.230469 -16.808594 C 58.742188 -13.191406 56.691406 -10.0625 54.074219 -7.421875 C 51.460938 -4.78125 48.421875 -2.730469 44.960938 -1.269531 C 41.5 0.191406 37.769531 0.921875 33.769531 0.921875 Z M 33.769531 -4.847656 C 37.101562 -4.847656 40.140625 -5.460938 42.882812 -6.691406 C 45.625 -7.921875 48 -9.640625 50 -11.847656 C 52 -14.050781 53.550781 -16.589844 54.652344 -19.460938 C 55.753906 -22.332031 56.304688 -25.410156 56.304688 -28.691406 C 56.304688 -31.921875 55.753906 -34.972656 54.652344 -37.84375 C 53.550781 -40.714844 52 -43.253906 50 -45.460938 C 48 -47.664062 45.625 -49.382812 42.882812 -50.613281 C 40.140625 -51.84375 37.101562 -52.460938 33.769531 -52.460938 C 30.433594 -52.460938 27.394531 -51.84375 24.652344 -50.613281 C 21.910156 -49.382812 19.539062 -47.664062 17.539062 -45.460938 C 15.539062 -43.253906 13.988281 -40.714844 12.882812 -37.84375 C 11.78125 -34.972656 11.230469 -31.921875 11.230469 -28.691406 C 11.230469 -25.410156 11.78125 -22.332031 12.882812 -19.460938 C 13.988281 -16.589844 15.539062 -14.050781 17.539062 -11.847656 C 19.539062 -9.640625 21.921875 -7.921875 24.691406 -6.691406 C 27.460938 -5.460938 30.484375 -4.847656 33.769531 -4.847656 Z M 33.769531 -4.847656 "/></g></g></g><g fill="#fefcfb" fill-opacity="1"><g transform="translate(1003.368115, 445.869988)"><g><path d="M 6.769531 0 L 6.769531 -57.304688 L 12.152344 -57.304688 L 45.769531 -9.078125 L 43.691406 -9.078125 L 43.691406 -57.304688 L 49.84375 -57.304688 L 49.84375 0 L 44.460938 0 L 10.847656 -48.535156 L 12.921875 -48.535156 L 12.921875 0 Z M 6.769531 0 "/></g></g></g><g fill="#fefcfb" fill-opacity="1"><g transform="translate(1059.978073, 445.869988)"><g/></g></g><g fill="#fefcfb" fill-opacity="1"><g transform="translate(1073.053739, 445.869988)"><g><path d="M 32.921875 0.921875 C 28.871094 0.921875 25.152344 0.191406 21.769531 -1.269531 C 18.382812 -2.730469 15.449219 -4.78125 12.960938 -7.421875 C 10.472656 -10.0625 8.539062 -13.179688 7.152344 -16.769531 C 5.769531 -20.359375 5.078125 -24.308594 5.078125 -28.613281 C 5.078125 -32.921875 5.769531 -36.871094 7.152344 -40.460938 C 8.539062 -44.050781 10.472656 -47.179688 12.960938 -49.84375 C 15.449219 -52.511719 18.382812 -54.574219 21.769531 -56.035156 C 25.152344 -57.496094 28.871094 -58.230469 32.921875 -58.230469 C 36.820312 -58.230469 40.320312 -57.535156 43.421875 -56.152344 C 46.523438 -54.765625 49.140625 -52.984375 51.265625 -50.804688 C 53.394531 -48.625 54.921875 -46.332031 55.84375 -43.921875 L 50.074219 -41.382812 C 48.640625 -44.714844 46.445312 -47.394531 43.5 -49.421875 C 40.550781 -51.445312 37.023438 -52.460938 32.921875 -52.460938 C 28.71875 -52.460938 24.972656 -51.460938 21.691406 -49.460938 C 18.410156 -47.460938 15.84375 -44.679688 14 -41.113281 C 12.152344 -37.550781 11.230469 -33.382812 11.230469 -28.613281 C 11.230469 -23.898438 12.152344 -19.742188 14 -16.152344 C 15.84375 -12.5625 18.410156 -9.78125 21.691406 -7.808594 C 24.972656 -5.832031 28.71875 -4.847656 32.921875 -4.847656 C 37.023438 -4.847656 40.550781 -5.847656 43.5 -7.847656 C 46.445312 -9.847656 48.640625 -12.511719 50.074219 -15.84375 L 55.84375 -13.308594 C 54.921875 -10.949219 53.394531 -8.679688 51.265625 -6.5 C 49.140625 -4.320312 46.523438 -2.539062 43.421875 -1.152344 C 40.320312 0.230469 36.820312 0.921875 32.921875 0.921875 Z M 32.921875 0.921875 "/></g></g></g><g fill="#fefcfb" fill-opacity="1"><g transform="translate(1133.124854, 445.869988)"><g><path d="M 33.769531 0.921875 C 29.769531 0.921875 26.039062 0.191406 22.574219 -1.269531 C 19.113281 -2.730469 16.078125 -4.78125 13.460938 -7.421875 C 10.847656 -10.0625 8.792969 -13.191406 7.308594 -16.808594 C 5.820312 -20.421875 5.078125 -24.382812 5.078125 -28.691406 C 5.078125 -33 5.820312 -36.960938 7.308594 -40.574219 C 8.792969 -44.191406 10.847656 -47.320312 13.460938 -49.960938 C 16.078125 -52.601562 19.113281 -54.640625 22.574219 -56.074219 C 26.039062 -57.511719 29.769531 -58.230469 33.769531 -58.230469 C 37.769531 -58.230469 41.5 -57.496094 44.960938 -56.035156 C 48.421875 -54.574219 51.460938 -52.523438 54.074219 -49.882812 C 56.691406 -47.242188 58.742188 -44.125 60.230469 -40.535156 C 61.714844 -36.949219 62.460938 -33 62.460938 -28.691406 C 62.460938 -24.382812 61.714844 -20.421875 60.230469 -16.808594 C 58.742188 -13.191406 56.691406 -10.0625 54.074219 -7.421875 C 51.460938 -4.78125 48.421875 -2.730469 44.960938 -1.269531 C 41.5 0.191406 37.769531 0.921875 33.769531 0.921875 Z M 33.769531 -4.847656 C 37.101562 -4.847656 40.140625 -5.460938 42.882812 -6.691406 C 45.625 -7.921875 48 -9.640625 50 -11.847656 C 52 -14.050781 53.550781 -16.589844 54.652344 -19.460938 C 55.753906 -22.332031 56.304688 -25.410156 56.304688 -28.691406 C 56.304688 -31.921875 55.753906 -34.972656 54.652344 -37.84375 C 53.550781 -40.714844 52 -43.253906 50 -45.460938 C 48 -47.664062 45.625 -49.382812 42.882812 -50.613281 C 40.140625 -51.84375 37.101562 -52.460938 33.769531 -52.460938 C 30.433594 -52.460938 27.394531 -51.84375 24.652344 -50.613281 C 21.910156 -49.382812 19.539062 -47.664062 17.539062 -45.460938 C 15.539062 -43.253906 13.988281 -40.714844 12.882812 -37.84375 C 11.78125 -34.972656 11.230469 -31.921875 11.230469 -28.691406 C 11.230469 -25.410156 11.78125 -22.332031 12.882812 -19.460938 C 13.988281 -16.589844 15.539062 -14.050781 17.539062 -11.847656 C 19.539062 -9.640625 21.921875 -7.921875 24.691406 -6.691406 C 27.460938 -5.460938 30.484375 -4.847656 33.769531 -4.847656 Z M 33.769531 -4.847656 "/></g></g></g><g fill="#fefcfb" fill-opacity="1"><g transform="translate(1200.656775, 445.869988)"><g><path d="M 6.769531 0 L 6.769531 -57.304688 L 26.460938 -57.304688 C 30.203125 -57.304688 33.484375 -56.574219 36.304688 -55.113281 C 39.125 -53.652344 41.320312 -51.601562 42.882812 -48.960938 C 44.445312 -46.320312 45.230469 -43.253906 45.230469 -39.769531 C 45.230469 -35.714844 44.164062 -32.253906 42.035156 -29.382812 C 39.910156 -26.511719 37.023438 -24.484375 33.382812 -23.308594 L 46.769531 0 L 39.535156 0 L 25.539062 -24.691406 L 29.691406 -22.308594 L 12.921875 -22.308594 L 12.921875 0 Z M 12.921875 -28.074219 L 26.769531 -28.074219 C 29.230469 -28.074219 31.382812 -28.550781 33.230469 -29.5 C 35.074219 -30.449219 36.511719 -31.804688 37.539062 -33.574219 C 38.5625 -35.34375 39.074219 -37.433594 39.074219 -39.84375 C 39.074219 -42.253906 38.5625 -44.332031 37.539062 -46.074219 C 36.511719 -47.820312 35.074219 -49.164062 33.230469 -50.113281 C 31.382812 -51.0625 29.230469 -51.535156 26.769531 -51.535156 L 12.921875 -51.535156 Z M 12.921875 -28.074219 "/></g></g></g><g fill="#fefcfb" fill-opacity="1"><g transform="translate(1249.959713, 445.869988)"><g><path d="M 6.769531 0 L 6.769531 -57.304688 L 26.460938 -57.304688 C 30.203125 -57.304688 33.484375 -56.574219 36.304688 -55.113281 C 39.125 -53.652344 41.320312 -51.601562 42.882812 -48.960938 C 44.445312 -46.320312 45.230469 -43.253906 45.230469 -39.769531 C 45.230469 -36.28125 44.445312 -33.230469 42.882812 -30.613281 C 41.320312 -28 39.140625 -25.960938 36.34375 -24.5 C 33.550781 -23.039062 30.253906 -22.308594 26.460938 -22.308594 L 12.921875 -22.308594 L 12.921875 0 Z M 12.921875 -28.074219 L 26.769531 -28.074219 C 29.230469 -28.074219 31.382812 -28.550781 33.230469 -29.5 C 35.074219 -30.449219 36.511719 -31.804688 37.539062 -33.574219 C 38.5625 -35.34375 39.074219 -37.433594 39.074219 -39.84375 C 39.074219 -42.253906 38.5625 -44.332031 37.539062 -46.074219 C 36.511719 -47.820312 35.074219 -49.164062 33.230469 -50.113281 C 31.382812 -51.0625 29.230469 -51.535156 26.769531 -51.535156 L 12.921875 -51.535156 Z M 12.921875 -28.074219 "/></g></g></g><g fill="#fefcfb" fill-opacity="1"><g transform="translate(1299.416473, 445.869988)"><g><path d="M 33.769531 0.921875 C 29.769531 0.921875 26.039062 0.191406 22.574219 -1.269531 C 19.113281 -2.730469 16.078125 -4.78125 13.460938 -7.421875 C 10.847656 -10.0625 8.792969 -13.191406 7.308594 -16.808594 C 5.820312 -20.421875 5.078125 -24.382812 5.078125 -28.691406 C 5.078125 -33 5.820312 -36.960938 7.308594 -40.574219 C 8.792969 -44.191406 10.847656 -47.320312 13.460938 -49.960938 C 16.078125 -52.601562 19.113281 -54.640625 22.574219 -56.074219 C 26.039062 -57.511719 29.769531 -58.230469 33.769531 -58.230469 C 37.769531 -58.230469 41.5 -57.496094 44.960938 -56.035156 C 48.421875 -54.574219 51.460938 -52.523438 54.074219 -49.882812 C 56.691406 -47.242188 58.742188 -44.125 60.230469 -40.535156 C 61.714844 -36.949219 62.460938 -33 62.460938 -28.691406 C 62.460938 -24.382812 61.714844 -20.421875 60.230469 -16.808594 C 58.742188 -13.191406 56.691406 -10.0625 54.074219 -7.421875 C 51.460938 -4.78125 48.421875 -2.730469 44.960938 -1.269531 C 41.5 0.191406 37.769531 0.921875 33.769531 0.921875 Z M 33.769531 -4.847656 C 37.101562 -4.847656 40.140625 -5.460938 42.882812 -6.691406 C 45.625 -7.921875 48 -9.640625 50 -11.847656 C 52 -14.050781 53.550781 -16.589844 54.652344 -19.460938 C 55.753906 -22.332031 56.304688 -25.410156 56.304688 -28.691406 C 56.304688 -31.921875 55.753906 -34.972656 54.652344 -37.84375 C 53.550781 -40.714844 52 -43.253906 50 -45.460938 C 48 -47.664062 45.625 -49.382812 42.882812 -50.613281 C 40.140625 -51.84375 37.101562 -52.460938 33.769531 -52.460938 C 30.433594 -52.460938 27.394531 -51.84375 24.652344 -50.613281 C 21.910156 -49.382812 19.539062 -47.664062 17.539062 -45.460938 C 15.539062 -43.253906 13.988281 -40.714844 12.882812 -37.84375 C 11.78125 -34.972656 11.230469 -31.921875 11.230469 -28.691406 C 11.230469 -25.410156 11.78125 -22.332031 12.882812 -19.460938 C 13.988281 -16.589844 15.539062 -14.050781 17.539062 -11.847656 C 19.539062 -9.640625 21.921875 -7.921875 24.691406 -6.691406 C 27.460938 -5.460938 30.484375 -4.847656 33.769531 -4.847656 Z M 33.769531 -4.847656 "/></g></g></g><g fill="#fefcfb" fill-opacity="1"><g transform="translate(1366.94847, 445.869988)"><g><path d="M 6.769531 0 L 6.769531 -57.304688 L 26.460938 -57.304688 C 30.203125 -57.304688 33.484375 -56.574219 36.304688 -55.113281 C 39.125 -53.652344 41.320312 -51.601562 42.882812 -48.960938 C 44.445312 -46.320312 45.230469 -43.253906 45.230469 -39.769531 C 45.230469 -35.714844 44.164062 -32.253906 42.035156 -29.382812 C 39.910156 -26.511719 37.023438 -24.484375 33.382812 -23.308594 L 46.769531 0 L 39.535156 0 L 25.539062 -24.691406 L 29.691406 -22.308594 L 12.921875 -22.308594 L 12.921875 0 Z M 12.921875 -28.074219 L 26.769531 -28.074219 C 29.230469 -28.074219 31.382812 -28.550781 33.230469 -29.5 C 35.074219 -30.449219 36.511719 -31.804688 37.539062 -33.574219 C 38.5625 -35.34375 39.074219 -37.433594 39.074219 -39.84375 C 39.074219 -42.253906 38.5625 -44.332031 37.539062 -46.074219 C 36.511719 -47.820312 35.074219 -49.164062 33.230469 -50.113281 C 31.382812 -51.0625 29.230469 -51.535156 26.769531 -51.535156 L 12.921875 -51.535156 Z M 12.921875 -28.074219 "/></g></g></g><g fill="#fefcfb" fill-opacity="1"><g transform="translate(1416.251407, 445.869988)"><g><path d="M 0.847656 0 L 21.769531 -57.304688 L 28.382812 -57.304688 L 49.304688 0 L 42.84375 0 L 37.921875 -14 L 12.308594 -14 L 7.308594 0 Z M 14.308594 -19.769531 L 35.769531 -19.769531 L 24.152344 -52.691406 L 26 -52.691406 Z M 14.308594 -19.769531 "/></g></g></g><g fill="#fefcfb" fill-opacity="1"><g transform="translate(1466.400407, 445.869988)"><g><path d="M 16.691406 0 L 16.691406 -51.535156 L 0.847656 -51.535156 L 0.847656 -57.304688 L 38.539062 -57.304688 L 38.539062 -51.535156 L 22.84375 -51.535156 L 22.84375 0 Z M 16.691406 0 "/></g></g></g><g fill="#fefcfb" fill-opacity="1"><g transform="translate(1505.781228, 445.869988)"><g><path d="M 6.769531 -57.304688 L 12.921875 -57.304688 L 12.921875 0 L 6.769531 0 Z M 6.769531 -57.304688 "/></g></g></g><g fill="#fefcfb" fill-opacity="1"><g transform="translate(1525.471638, 445.869988)"><g><path d="M 33.769531 0.921875 C 29.769531 0.921875 26.039062 0.191406 22.574219 -1.269531 C 19.113281 -2.730469 16.078125 -4.78125 13.460938 -7.421875 C 10.847656 -10.0625 8.792969 -13.191406 7.308594 -16.808594 C 5.820312 -20.421875 5.078125 -24.382812 5.078125 -28.691406 C 5.078125 -33 5.820312 -36.960938 7.308594 -40.574219 C 8.792969 -44.191406 10.847656 -47.320312 13.460938 -49.960938 C 16.078125 -52.601562 19.113281 -54.640625 22.574219 -56.074219 C 26.039062 -57.511719 29.769531 -58.230469 33.769531 -58.230469 C 37.769531 -58.230469 41.5 -57.496094 44.960938 -56.035156 C 48.421875 -54.574219 51.460938 -52.523438 54.074219 -49.882812 C 56.691406 -47.242188 58.742188 -44.125 60.230469 -40.535156 C 61.714844 -36.949219 62.460938 -33 62.460938 -28.691406 C 62.460938 -24.382812 61.714844 -20.421875 60.230469 -16.808594 C 58.742188 -13.191406 56.691406 -10.0625 54.074219 -7.421875 C 51.460938 -4.78125 48.421875 -2.730469 44.960938 -1.269531 C 41.5 0.191406 37.769531 0.921875 33.769531 0.921875 Z M 33.769531 -4.847656 C 37.101562 -4.847656 40.140625 -5.460938 42.882812 -6.691406 C 45.625 -7.921875 48 -9.640625 50 -11.847656 C 52 -14.050781 53.550781 -16.589844 54.652344 -19.460938 C 55.753906 -22.332031 56.304688 -25.410156 56.304688 -28.691406 C 56.304688 -31.921875 55.753906 -34.972656 54.652344 -37.84375 C 53.550781 -40.714844 52 -43.253906 50 -45.460938 C 48 -47.664062 45.625 -49.382812 42.882812 -50.613281 C 40.140625 -51.84375 37.101562 -52.460938 33.769531 -52.460938 C 30.433594 -52.460938 27.394531 -51.84375 24.652344 -50.613281 C 21.910156 -49.382812 19.539062 -47.664062 17.539062 -45.460938 C 15.539062 -43.253906 13.988281 -40.714844 12.882812 -37.84375 C 11.78125 -34.972656 11.230469 -31.921875 11.230469 -28.691406 C 11.230469 -25.410156 11.78125 -22.332031 12.882812 -19.460938 C 13.988281 -16.589844 15.539062 -14.050781 17.539062 -11.847656 C 19.539062 -9.640625 21.921875 -7.921875 24.691406 -6.691406 C 27.460938 -5.460938 30.484375 -4.847656 33.769531 -4.847656 Z M 33.769531 -4.847656 "/></g></g></g><g fill="#fefcfb" fill-opacity="1"><g transform="translate(1593.003634, 445.869988)"><g><path d="M 6.769531 0 L 6.769531 -57.304688 L 12.152344 -57.304688 L 45.769531 -9.078125 L 43.691406 -9.078125 L 43.691406 -57.304688 L 49.84375 -57.304688 L 49.84375 0 L 44.460938 0 L 10.847656 -48.535156 L 12.921875 -48.535156 L 12.921875 0 Z M 6.769531 0 "/></g></g></g></svg>