<svg width="48" height="48" viewBox="0 0 48 48" fill="none" xmlns="http://www.w3.org/2000/svg">
<circle cx="24" cy="24" r="24" fill="#FEFCFB"/>
<path d="M36 12H12C10.35 12 9.015 13.35 9.015 15L9 33C9 34.65 10.35 36 12 36H36C37.65 36 39 34.65 39 33V15C39 13.35 37.65 12 36 12ZM35.4 18.375L24.795 25.005C24.315 25.305 23.685 25.305 23.205 25.005L12.6 18.375C12.4496 18.2906 12.3179 18.1765 12.2128 18.0397C12.1078 17.9029 12.0316 17.7462 11.9889 17.5791C11.9461 17.4119 11.9378 17.2379 11.9642 17.0675C11.9907 16.897 12.0515 16.7337 12.1429 16.5875C12.2343 16.4412 12.3545 16.315 12.4961 16.2165C12.6377 16.118 12.7978 16.0493 12.9667 16.0144C13.1357 15.9796 13.3099 15.9795 13.4789 16.0139C13.6479 16.0484 13.8082 16.1168 13.95 16.215L24 22.5L34.05 16.215C34.1918 16.1168 34.3521 16.0484 34.5211 16.0139C34.6901 15.9795 34.8643 15.9796 35.0333 16.0144C35.2022 16.0493 35.3623 16.118 35.5039 16.2165C35.6455 16.315 35.7657 16.4412 35.8571 16.5875C35.9485 16.7337 36.0093 16.897 36.0358 17.0675C36.0622 17.2379 36.0539 17.4119 36.0111 17.5791C35.9684 17.7462 35.8922 17.9029 35.7872 18.0397C35.6821 18.1765 35.5504 18.2906 35.4 18.375Z" fill="#0A1128"/>
</svg>

