<svg width="48" height="48" viewBox="0 0 48 48" fill="none" xmlns="http://www.w3.org/2000/svg">
<circle cx="24" cy="24" r="24" fill="#FEFCFB"/>
<path d="M30.3232 28.2774L29.5143 29.0828C29.5143 29.0828 27.5889 30.9956 22.3356 25.7726C17.0823 20.5495 19.0077 18.6366 19.0077 18.6366L19.5161 18.1282C20.773 16.8802 20.8921 14.8749 19.7952 13.41L17.5552 10.418C16.197 8.60468 13.5748 8.36468 12.0193 9.91134L9.22818 12.6847C8.45841 13.4526 7.94286 14.4446 8.00508 15.5469C8.16508 18.3682 9.44151 24.4357 16.5597 31.5148C24.1099 39.0205 31.1943 39.3191 34.0902 39.0489C35.0076 38.9636 35.804 38.4978 36.4458 37.8578L38.9702 35.3476C40.6769 33.6534 40.1969 30.7468 38.0138 29.561L34.6182 27.7139C33.1854 26.937 31.4431 27.1646 30.3232 28.2774Z" fill="#0A1128"/>
</svg>
