<?xml version="1.0" encoding="UTF-8"?>
<svg version="1.1" xmlns="http://www.w3.org/2000/svg" width="2000" height="2000">
<path d="M0 0 C0.92725511 -0.00506577 1.85451021 -0.01013154 2.80986395 -0.01535082 C3.8374118 -0.01586813 4.86495965 -0.01638544 5.92364532 -0.01691842 C7.01285686 -0.02136783 8.1020684 -0.02581723 9.22428635 -0.03040147 C12.91752439 -0.04420537 16.61074087 -0.05079174 20.30399829 -0.05741906 C22.96123396 -0.06572289 25.61846603 -0.07440602 28.27569878 -0.08352709 C34.84068994 -0.10510532 41.4056843 -0.12111823 47.970695 -0.13537543 C53.43080044 -0.14737676 58.89089578 -0.16169103 64.35099155 -0.17747903 C65.13781473 -0.17975034 65.92463791 -0.18202164 66.73530421 -0.18436178 C67.92305158 -0.1877916 67.92305158 -0.1877916 69.13479384 -0.19129071 C127.69892267 -0.36039242 186.26336167 -0.44477538 244.82768593 -0.51188771 C253.53978654 -0.52189967 262.2518867 -0.53229466 270.96398669 -0.54283166 C271.92667915 -0.54398712 272.8893716 -0.54514259 273.88123655 -0.54633306 C305.10273378 -0.58407454 336.32398863 -0.66010316 367.54535413 -0.75694666 C399.62804933 -0.85628108 431.71061305 -0.9198811 463.79346264 -0.93730106 C468.32238891 -0.93977051 472.85131486 -0.94263502 477.38024074 -0.94573236 C478.27160784 -0.94632751 479.16297493 -0.94692266 480.08135316 -0.94753585 C494.44222953 -0.95814935 508.80274725 -1.00630771 523.16348366 -1.06825774 C537.59171972 -1.12965865 552.01957379 -1.15096835 566.44793089 -1.13117251 C575.02530525 -1.1206128 583.60133188 -1.14083586 592.17848123 -1.20478034 C597.90471887 -1.24445683 603.63005497 -1.24434131 609.35633446 -1.21161828 C612.62204034 -1.19409999 615.88465891 -1.20014724 619.15021201 -1.24253795 C638.62444508 -1.48038563 638.62444508 -1.48038563 643.58756441 2.53399205 C645.38807135 5.36307961 646.45131294 8.01175942 647.6238988 11.13685584 C648.9283099 12.49849722 650.25665551 13.83831769 651.6238988 15.13685584 C651.6238988 15.79685584 651.6238988 16.45685584 651.6238988 17.13685584 C652.2838988 17.13685584 652.9438988 17.13685584 653.6238988 17.13685584 C655.0692113 19.12123084 655.0692113 19.12123084 656.7488988 21.88685584 C659.92686504 27.02555486 663.21608924 32.06810116 666.58093005 37.08607459 C667.96059056 39.14633244 669.33281885 41.21158396 670.69811755 43.28138709 C674.09566647 48.42624688 677.56552471 53.44223067 681.3192113 58.33216834 C682.60387415 60.10915706 683.6874521 61.90716916 684.7488988 63.82435584 C686.49044503 67.10584306 686.49044503 67.10584306 688.6238988 69.63685584 C690.5882986 72.09235559 692.04390138 74.63474286 693.55749255 77.38294959 C694.74301994 79.43016579 694.74301994 79.43016579 697.1238988 82.13685584 C698.99349108 84.38036657 700.30806587 86.19673565 701.6863988 88.69935584 C703.47506713 92.08815572 703.47506713 92.08815572 705.6238988 94.63685584 C707.54772611 97.04163998 709.01320722 99.513364 710.5067113 102.19935584 C713.84560476 107.98988435 717.78789506 113.38725968 721.7488988 118.76185584 C723.96203052 121.77440776 726.06665405 124.73889289 727.8738988 128.01185584 C729.51170931 131.13628808 729.51170931 131.13628808 731.6238988 133.63685584 C733.5882986 136.09235559 735.04390138 138.63474286 736.55749255 141.38294959 C737.74301994 143.43016579 737.74301994 143.43016579 740.1238988 146.13685584 C742.2917907 148.73832611 743.9158714 151.27191385 745.5379613 154.23060584 C749.19685447 160.65341111 753.66015178 166.6303387 757.9051488 172.67201209 C762.44057817 179.17623012 766.72139279 185.82860676 770.9129613 192.55873084 C772.67729308 195.21731297 774.6312843 197.64710643 776.6238988 200.13685584 C777.60766202 201.88224218 778.59093176 203.62797843 779.55749255 205.38294959 C780.74301994 207.43016579 780.74301994 207.43016579 783.1238988 210.13685584 C785.2917907 212.73832611 786.9158714 215.27191385 788.5379613 218.23060584 C792.19685447 224.65341111 796.66015178 230.6303387 800.9051488 236.67201209 C805.44057817 243.17623012 809.72139279 249.82860676 813.9129613 256.55873084 C815.67729308 259.21731297 817.6312843 261.64710643 819.6238988 264.13685584 C820.60766202 265.88224218 821.59093176 267.62797843 822.55749255 269.38294959 C823.74301994 271.43016579 823.74301994 271.43016579 826.1238988 274.13685584 C828.28354092 276.72842638 829.86984567 279.23858424 831.4832738 282.18373084 C833.31872368 285.32662446 835.46787449 288.24089439 837.57311755 291.20716834 C839.95427004 294.60881475 842.26310727 298.05392006 844.5613988 301.51185584 C844.98727283 302.15195594 845.41314685 302.79205604 845.85192615 303.45155311 C847.85066165 306.45877954 849.84403711 309.4694494 851.83093005 312.48451209 C855.18679618 317.56001898 858.61466675 322.50624814 862.3192113 327.33216834 C863.60387415 329.10915706 864.6874521 330.90716916 865.7488988 332.82435584 C867.49044503 336.10584306 867.49044503 336.10584306 869.6238988 338.63685584 C871.53625621 341.0273026 872.96717349 343.47830093 874.44811755 346.14857459 C876.30873018 349.29492617 878.45859939 352.22782583 880.57311755 355.20716834 C882.95427004 358.60881475 885.26310727 362.05392006 887.5613988 365.51185584 C887.98727283 366.15195594 888.41314685 366.79205604 888.85192615 367.45155311 C890.85066165 370.45877954 892.84403711 373.4694494 894.83093005 376.48451209 C898.18679618 381.56001898 901.61466675 386.50624814 905.3192113 391.33216834 C906.60387415 393.10915706 907.6874521 394.90716916 908.7488988 396.82435584 C910.49044503 400.10584306 910.49044503 400.10584306 912.6238988 402.63685584 C914.53625621 405.0273026 915.96717349 407.47830093 917.44811755 410.14857459 C919.30873018 413.29492617 921.45859939 416.22782583 923.57311755 419.20716834 C925.95427004 422.60881475 928.26310727 426.05392006 930.5613988 429.51185584 C930.98727283 430.15195594 931.41314685 430.79205604 931.85192615 431.45155311 C933.85066165 434.45877954 935.84403711 437.4694494 937.83093005 440.48451209 C941.18679618 445.56001898 944.61466675 450.50624814 948.3192113 455.33216834 C949.60387415 457.10915706 950.6874521 458.90716916 951.7488988 460.82435584 C953.49044503 464.10584306 953.49044503 464.10584306 955.6238988 466.63685584 C957.53625621 469.0273026 958.96717349 471.47830093 960.44811755 474.14857459 C962.30873018 477.29492617 964.45859939 480.22782583 966.57311755 483.20716834 C968.95427004 486.60881475 971.26310727 490.05392006 973.5613988 493.51185584 C973.98727283 494.15195594 974.41314685 494.79205604 974.85192615 495.45155311 C976.85066165 498.45877954 978.84403711 501.4694494 980.83093005 504.48451209 C984.18679618 509.56001898 987.61466675 514.50624814 991.3192113 519.33216834 C992.60387415 521.10915706 993.6874521 522.90716916 994.7488988 524.82435584 C996.49044503 528.10584306 996.49044503 528.10584306 998.6238988 530.63685584 C1000.53725884 533.02855588 1001.99836976 535.47989721 1003.4754613 538.15638709 C1005.66787858 541.93718832 1008.16666584 545.52472338 1010.6238988 549.13685584 C1012.29296924 543.75108783 1013.31262431 538.44755531 1014.1395238 532.87513709 C1014.27566089 531.98465171 1014.41179797 531.09416633 1014.55206043 530.17669654 C1014.84413955 528.26452911 1015.13430435 526.35206846 1015.42272693 524.43934608 C1016.19323503 519.33306217 1016.97893273 514.22911889 1017.7645238 509.12513709 C1017.92239368 508.09792548 1018.08026355 507.07071387 1018.24291736 506.01237464 C1019.62705125 497.04061033 1021.10712186 488.0869947 1022.6238988 479.13685584 C1025.19529656 463.93570009 1027.58708725 448.70948286 1029.9129613 433.46888709 C1031.66717102 422.02238376 1033.53463756 410.59668648 1035.44811755 399.17591834 C1038.54492263 380.6907729 1041.53836211 362.18988341 1044.50755435 343.68386054 C1045.0981801 340.00384377 1045.68962117 336.3239582 1046.28105575 332.64407134 C1048.22628306 320.54088915 1050.16900186 308.43730498 1052.11098987 296.33360267 C1052.62885157 293.1059873 1053.14675639 289.87837885 1053.66467029 286.65077186 C1059.30027185 251.52945497 1064.93164531 216.40746002 1070.56194812 181.28529334 C1076.4684916 144.44004159 1082.37847353 107.59536869 1088.33347064 70.75791144 C1088.67804341 68.62605038 1089.02242518 66.49415855 1089.36675769 64.36225867 C1090.77911765 55.61936621 1092.19750448 46.87747093 1093.6238988 38.13685584 C1093.81285724 36.97750525 1094.00181567 35.81815467 1094.19650012 34.62367225 C1094.73719278 31.31379481 1095.28142149 28.00452086 1095.8270238 24.69544959 C1095.98473758 23.72917136 1096.14245136 22.76289313 1096.30494434 21.76733375 C1099.03219856 5.32025634 1099.03219856 5.32025634 1101.6238988 0.13685584 C1282.4638988 0.13685584 1463.3038988 0.13685584 1649.6238988 0.13685584 C1653.9561159 13.13350713 1646.42388241 34.23445265 1644.22647601 47.61191916 C1643.62007813 51.30959731 1643.01831266 55.00802883 1642.41637927 58.70643592 C1642.16366843 60.25888123 1641.9109523 61.81132567 1641.65823108 63.36376929 C1641.46717729 64.5374522 1641.46717729 64.5374522 1641.27226382 65.73484588 C1640.87750288 68.15879051 1640.48225379 70.58265511 1640.08688098 73.00650001 C1637.09427483 91.35724453 1634.14248938 109.71453668 1631.19141895 128.07199836 C1630.59713251 131.7683018 1630.00250407 135.46455018 1629.40786487 139.16079688 C1625.03900173 166.31749932 1620.67902521 193.47562554 1616.32220203 220.63426185 C1611.80433871 248.79653729 1607.2752477 276.95699568 1602.74166614 305.11674476 C1599.5688503 324.82452585 1596.39822767 344.53265207 1593.23718005 364.24232459 C1593.09960788 365.10008302 1592.96203571 365.95784144 1592.82029468 366.84159255 C1591.722317 373.68756762 1590.62444263 380.53355926 1589.52666217 387.37956595 C1586.65961302 405.25872949 1583.79039324 423.13751126 1580.89343005 441.01185584 C1580.78368539 441.68904418 1580.67394073 442.36623252 1580.56087047 443.06394172 C1579.57333115 449.15720839 1578.58534761 455.25040299 1577.59689075 461.34352088 C1574.62932461 479.63988649 1571.69403471 497.94123768 1568.7801488 516.24623084 C1568.44359632 518.35966047 1568.10703828 520.47308922 1567.77047473 522.5865171 C1566.43927897 530.94713667 1565.10809316 539.30775615 1563.78191882 547.66917396 C1557.77867069 585.51864261 1557.77867069 585.51864261 1554.7410863 603.23451209 C1554.53831073 604.42185447 1554.33553516 605.60919684 1554.12661487 606.83251929 C1553.9412215 607.8998278 1553.75582813 608.9671363 1553.56481677 610.06678748 C1553.40592975 610.98238944 1553.24704273 611.8979914 1553.08334094 612.84133887 C1552.6238988 615.13685584 1552.6238988 615.13685584 1551.6238988 618.13685584 C1388.6038988 618.13685584 1225.5838988 618.13685584 1057.6238988 618.13685584 C1066.35417537 632.06101243 1066.35417537 632.06101243 1075.8738988 645.44935584 C1078.02921169 648.26339706 1079.80879548 651.14181061 1081.51843005 654.25404334 C1083.34721089 657.36878667 1085.48383864 660.26338778 1087.57311755 663.20716834 C1089.95426551 666.60880828 1092.26330965 670.05379132 1094.5613988 673.51185584 C1094.98872302 674.15485633 1095.41604724 674.79785682 1095.85632068 675.46034217 C1096.70836319 676.74341605 1097.56009303 678.02669764 1098.41149646 679.31019568 C1100.82968386 682.9535461 1103.25853261 686.5897952 1105.6863988 690.22669959 C1107.02450235 692.23655271 1108.35752244 694.24979625 1109.6863988 696.26576209 C1112.64725876 700.74630584 1115.60496056 705.18659466 1118.8738988 709.44935584 C1121.02921169 712.26339706 1122.80879548 715.14181061 1124.51843005 718.25404334 C1126.34721089 721.36878667 1128.48383864 724.26338778 1130.57311755 727.20716834 C1132.95427004 730.60881475 1135.26310727 734.05392006 1137.5613988 737.51185584 C1138.20020984 738.47200599 1138.20020984 738.47200599 1138.85192615 739.45155311 C1140.85066165 742.45877954 1142.84403711 745.4694494 1144.83093005 748.48451209 C1148.18679618 753.56001898 1151.61466675 758.50624814 1155.3192113 763.33216834 C1156.60387415 765.10915706 1157.6874521 766.90716916 1158.7488988 768.82435584 C1160.49044503 772.10584306 1160.49044503 772.10584306 1162.6238988 774.63685584 C1164.53625621 777.0273026 1165.96717349 779.47830093 1167.44811755 782.14857459 C1169.30873018 785.29492617 1171.45859939 788.22782583 1173.57311755 791.20716834 C1175.95427004 794.60881475 1178.26310727 798.05392006 1180.5613988 801.51185584 C1181.20020984 802.47200599 1181.20020984 802.47200599 1181.85192615 803.45155311 C1183.85066165 806.45877954 1185.84403711 809.4694494 1187.83093005 812.48451209 C1191.18679618 817.56001898 1194.61466675 822.50624814 1198.3192113 827.33216834 C1199.60387415 829.10915706 1200.6874521 830.90716916 1201.7488988 832.82435584 C1203.49044503 836.10584306 1203.49044503 836.10584306 1205.6238988 838.63685584 C1207.53625621 841.0273026 1208.96717349 843.47830093 1210.44811755 846.14857459 C1212.30873018 849.29492617 1214.45859939 852.22782583 1216.57311755 855.20716834 C1218.95427004 858.60881475 1221.26310727 862.05392006 1223.5613988 865.51185584 C1224.20020984 866.47200599 1224.20020984 866.47200599 1224.85192615 867.45155311 C1226.85066165 870.45877954 1228.84403711 873.4694494 1230.83093005 876.48451209 C1234.18679618 881.56001898 1237.61466675 886.50624814 1241.3192113 891.33216834 C1242.60387415 893.10915706 1243.6874521 894.90716916 1244.7488988 896.82435584 C1246.49044503 900.10584306 1246.49044503 900.10584306 1248.6238988 902.63685584 C1250.53625621 905.0273026 1251.96717349 907.47830093 1253.44811755 910.14857459 C1255.30636108 913.29091995 1257.45309104 916.22018038 1259.56530505 919.19544959 C1261.99187806 922.66264024 1264.34387411 926.17506421 1266.6863988 929.69935584 C1267.11887927 930.34936561 1267.55135974 930.99937537 1267.99694568 931.6690824 C1269.77594339 934.34572706 1271.55045281 937.02507545 1273.31530505 939.71107459 C1276.01933105 943.81500505 1278.83233694 947.80519655 1281.7488988 951.76185584 C1283.96203052 954.77440776 1286.06665405 957.73889289 1287.8738988 961.01185584 C1289.51170931 964.13628808 1289.51170931 964.13628808 1291.6238988 966.63685584 C1293.5882986 969.09235559 1295.04390138 971.63474286 1296.55749255 974.38294959 C1297.74301994 976.43016579 1297.74301994 976.43016579 1300.1238988 979.13685584 C1302.2917907 981.73832611 1303.9158714 984.27191385 1305.5379613 987.23060584 C1309.19685447 993.65341111 1313.66015178 999.6303387 1317.9051488 1005.67201209 C1321.82407286 1011.29210545 1325.55255415 1017.01648317 1329.1863988 1022.82435584 C1331.08824239 1025.83630637 1332.97398385 1028.69811165 1335.3113988 1031.38685584 C1337.10970339 1033.52538022 1338.35909933 1035.2968409 1339.6863988 1037.69935584 C1341.47506713 1041.08815572 1341.47506713 1041.08815572 1343.6238988 1043.63685584 C1345.54673967 1046.04040693 1347.01199423 1048.50966977 1348.50280505 1051.19544959 C1352.20941649 1057.61421573 1356.64798998 1063.61302946 1360.9051488 1069.67201209 C1364.82407286 1075.29210545 1368.55255415 1081.01648317 1372.1863988 1086.82435584 C1374.08824239 1089.83630637 1375.97398385 1092.69811165 1378.3113988 1095.38685584 C1380.10970339 1097.52538022 1381.35909933 1099.2968409 1382.6863988 1101.69935584 C1384.47506713 1105.08815572 1384.47506713 1105.08815572 1386.6238988 1107.63685584 C1388.54673967 1110.04040693 1390.01199423 1112.50966977 1391.50280505 1115.19544959 C1395.2100167 1121.61525512 1399.63941844 1127.63065476 1403.9129613 1133.67982459 C1406.52570934 1137.43192166 1409.03870585 1141.24840499 1411.5535863 1145.06654334 C1414.55661456 1149.61329697 1417.55386747 1154.12657393 1420.8738988 1158.44935584 C1422.70190063 1160.83069876 1424.2947699 1163.19790595 1425.7488988 1165.82435584 C1427.49044503 1169.10584306 1427.49044503 1169.10584306 1429.6238988 1171.63685584 C1431.53625621 1174.0273026 1432.96717349 1176.47830093 1434.44811755 1179.14857459 C1436.30873018 1182.29492617 1438.45859939 1185.22782583 1440.57311755 1188.20716834 C1442.95427004 1191.60881475 1445.26310727 1195.05392006 1447.5613988 1198.51185584 C1447.98727283 1199.15195594 1448.41314685 1199.79205604 1448.85192615 1200.45155311 C1450.85066165 1203.45877954 1452.84403711 1206.4694494 1454.83093005 1209.48451209 C1458.18679618 1214.56001898 1461.61466675 1219.50624814 1465.3192113 1224.33216834 C1466.60387415 1226.10915706 1467.6874521 1227.90716916 1468.7488988 1229.82435584 C1470.49044503 1233.10584306 1470.49044503 1233.10584306 1472.6238988 1235.63685584 C1475.03430656 1238.64986553 1476.74961987 1241.76315376 1478.6238988 1245.13685584 C1479.2838988 1246.12685584 1479.9438988 1247.11685584 1480.6238988 1248.13685584 C1480.9332738 1248.92060584 1481.2426488 1249.70435584 1481.5613988 1250.51185584 C1482.67124007 1253.25381662 1484.07914226 1255.61978659 1485.6238988 1258.13685584 C1423.76790057 1258.32535576 1361.91186916 1258.50025479 1300.0556615 1258.60263038 C1299.14043655 1258.604149 1298.22521161 1258.60566763 1297.28225257 1258.60723228 C1277.39282051 1258.64015287 1257.5033854 1258.67062507 1237.61394575 1258.69857446 C1227.86042682 1258.71229539 1218.10690872 1258.72655745 1208.35339099 1258.74110389 C1207.38278931 1258.74254224 1206.41218764 1258.74398059 1205.41217379 1258.74546252 C1173.94179972 1258.79235266 1142.47164266 1258.87498827 1111.00140011 1258.97612527 C1078.66653237 1259.0798524 1046.33178477 1259.14758835 1013.99675347 1259.16992073 C1009.43157574 1259.17309052 1004.86639841 1259.17667253 1000.30122119 1259.18050551 C998.95345855 1259.18161799 998.95345855 1259.18161799 997.57846838 1259.18275295 C983.104232 1259.19576115 968.63036664 1259.24680428 954.15628167 1259.31200821 C939.61129312 1259.37672214 925.06667305 1259.40151538 910.52154553 1259.38537099 C901.87551079 1259.37699271 893.23082273 1259.39940986 884.58503073 1259.46562881 C878.8116948 1259.50683331 873.03924211 1259.50819027 867.26584555 1259.47700579 C863.97401841 1259.46037048 860.68525911 1259.46725153 857.39360046 1259.51057085 C836.77779098 1259.76618066 836.77779098 1259.76618066 832.38422996 1255.72255266 C830.32041448 1252.9189884 828.97925631 1250.32715056 827.6238988 1247.13685584 C826.10154186 1245.17227816 826.10154186 1245.17227816 824.5613988 1243.63685584 C821.52083351 1240.1746655 819.1673787 1236.39896322 816.73718005 1232.49232459 C814.11641331 1228.33107018 811.41125223 1224.23048861 808.6863988 1220.13685584 C807.90885242 1218.96872352 807.90885242 1218.96872352 807.11559802 1217.77699256 C803.61101194 1212.54163766 799.9694469 1207.44293006 796.22155505 1202.37904334 C794.86994781 1200.48216667 793.68311323 1198.6112766 792.5613988 1196.57435584 C790.480797 1192.88296555 788.1248045 1189.51875294 785.67468005 1186.06654334 C783.29352756 1182.66489693 780.98469034 1179.21979162 778.6863988 1175.76185584 C778.26052478 1175.12175574 777.83465076 1174.48165565 777.39587146 1173.82215858 C775.39713596 1170.81493214 773.4037605 1167.80426228 771.41686755 1164.78919959 C768.06100143 1159.7136927 764.63313086 1154.76746355 760.9285863 1149.94154334 C759.64392346 1148.16455462 758.5603455 1146.36654252 757.4988988 1144.44935584 C755.75735258 1141.16786862 755.75735258 1141.16786862 753.6238988 1138.63685584 C751.71154139 1136.24640908 750.28062412 1133.79541075 748.79968005 1131.12513709 C746.93906743 1127.97878551 744.78919822 1125.04588586 742.67468005 1122.06654334 C740.29352756 1118.66489693 737.98469034 1115.21979162 735.6863988 1111.76185584 C735.26052478 1111.12175574 734.83465076 1110.48165565 734.39587146 1109.82215858 C732.39713596 1106.81493214 730.4037605 1103.80426228 728.41686755 1100.78919959 C725.06100143 1095.7136927 721.63313086 1090.76746355 717.9285863 1085.94154334 C716.64392346 1084.16455462 715.5603455 1082.36654252 714.4988988 1080.44935584 C712.75735258 1077.16786862 712.75735258 1077.16786862 710.6238988 1074.63685584 C708.65949901 1072.1813561 707.20389623 1069.63896882 705.69030505 1066.89076209 C704.50477766 1064.84354589 704.50477766 1064.84354589 702.1238988 1062.13685584 C700.25430653 1059.89334512 698.93973174 1058.07697604 697.5613988 1055.57435584 C695.77273048 1052.18555596 695.77273048 1052.18555596 693.6238988 1049.63685584 C691.7000715 1047.23207171 690.23459039 1044.76034769 688.7410863 1042.07435584 C685.40219285 1036.28382733 681.45990255 1030.886452 677.4988988 1025.51185584 C675.28576709 1022.49930392 673.18114356 1019.53481879 671.3738988 1016.26185584 C669.7360883 1013.1374236 669.7360883 1013.1374236 667.6238988 1010.63685584 C665.65949901 1008.1813561 664.20389623 1005.63896882 662.69030505 1002.89076209 C661.50477766 1000.84354589 661.50477766 1000.84354589 659.1238988 998.13685584 C656.95600691 995.53538557 655.33192621 993.00179783 653.7098363 990.04310584 C650.05094314 983.62030057 645.58764583 977.64337298 641.3426488 971.60169959 C636.80721944 965.09748156 632.52640481 958.44510493 628.3348363 951.71498084 C626.57050453 949.05639872 624.61651331 946.62660525 622.6238988 944.13685584 C621.64013559 942.3914695 620.65686585 940.64573325 619.69030505 938.89076209 C618.50477766 936.84354589 618.50477766 936.84354589 616.1238988 934.13685584 C613.95600691 931.53538557 612.33192621 929.00179783 610.7098363 926.04310584 C607.05094314 919.62030057 602.58764583 913.64337298 598.3426488 907.60169959 C593.80721944 901.09748156 589.52640481 894.44510493 585.3348363 887.71498084 C583.57050453 885.05639872 581.61651331 882.62660525 579.6238988 880.13685584 C578.64013559 878.3914695 577.65686585 876.64573325 576.69030505 874.89076209 C575.50477766 872.84354589 575.50477766 872.84354589 573.1238988 870.13685584 C570.96425669 867.5452853 569.37795194 865.03512744 567.7645238 862.08998084 C565.92907393 858.94708722 563.77992312 856.03281729 561.67468005 853.06654334 C559.29352756 849.66489693 556.98469034 846.21979162 554.6863988 842.76185584 C554.04758777 841.80170569 554.04758777 841.80170569 553.39587146 840.82215858 C551.39713596 837.81493214 549.4037605 834.80426228 547.41686755 831.78919959 C544.06100143 826.7136927 540.63313086 821.76746355 536.9285863 816.94154334 C535.64392346 815.16455462 534.5603455 813.36654252 533.4988988 811.44935584 C531.75735258 808.16786862 531.75735258 808.16786862 529.6238988 805.63685584 C527.71154139 803.24640908 526.28062412 800.79541075 524.79968005 798.12513709 C522.93906743 794.97878551 520.78919822 792.04588586 518.67468005 789.06654334 C516.29352756 785.66489693 513.98469034 782.21979162 511.6863988 778.76185584 C511.04758777 777.80170569 511.04758777 777.80170569 510.39587146 776.82215858 C508.39713596 773.81493214 506.4037605 770.80426228 504.41686755 767.78919959 C501.06100143 762.7136927 497.63313086 757.76746355 493.9285863 752.94154334 C492.64392346 751.16455462 491.5603455 749.36654252 490.4988988 747.44935584 C488.75735258 744.16786862 488.75735258 744.16786862 486.6238988 741.63685584 C484.71154139 739.24640908 483.28062412 736.79541075 481.79968005 734.12513709 C479.93906743 730.97878551 477.78919822 728.04588586 475.67468005 725.06654334 C473.29352756 721.66489693 470.98469034 718.21979162 468.6863988 714.76185584 C468.04758777 713.80170569 468.04758777 713.80170569 467.39587146 712.82215858 C465.39713596 709.81493214 463.4037605 706.80426228 461.41686755 703.78919959 C458.0676581 698.72376043 454.68628491 693.74111541 450.94811755 688.95326209 C449.35307839 686.76537651 448.00582158 684.4638662 446.6238988 682.13685584 C444.31004715 691.51510921 442.59278642 700.90855248 441.13561755 710.45326209 C440.90812858 711.91793004 440.68015501 713.38252279 440.45173389 714.84704566 C439.85325154 718.69089317 439.26007184 722.53553775 438.66845447 726.38044715 C437.62202587 733.17650896 436.56708846 739.97125519 435.51061755 746.76576209 C435.39260602 747.52553163 435.27459449 748.28530116 435.15300685 749.06809402 C433.42965493 760.15005774 431.63153268 771.21754204 429.7723363 782.27748084 C426.09890343 804.13305968 422.60855215 826.01768083 419.1089223 847.90164924 C418.17391139 853.74663677 417.2374792 859.59139659 416.3011449 865.43617225 C414.78792613 874.88270308 413.2752644 884.3293229 411.76305896 893.776016 C408.89462422 911.69430272 406.02217503 929.61194483 403.14724094 947.52918983 C402.74745077 950.02088073 402.34773358 952.51258333 401.948026 955.00428748 C399.27753745 971.6504356 396.60215394 988.29576243 393.9051488 1004.93763709 C393.79513789 1005.61649781 393.68512698 1006.29535853 393.57178241 1006.99479079 C392.68824651 1012.44659303 391.80448644 1017.89835897 390.92039233 1023.35007071 C386.56492756 1050.20882076 382.27885914 1077.07848329 377.9988988 1103.94935584 C373.07119081 1134.88685477 368.1017286 1165.81614342 363.00129443 1196.72570777 C361.94078846 1203.16775819 360.90803353 1209.61382481 359.8895238 1216.06263709 C359.61755806 1217.77546036 359.34550648 1219.48827 359.07336169 1221.20106483 C358.49720531 1224.82784747 357.9310291 1228.45602903 357.37510425 1232.08596778 C355.86651679 1241.31817945 353.79167385 1249.9238119 351.6238988 1259.13685584 C173.4238988 1258.80685584 -4.7761012 1258.47685584 -188.3761012 1258.13685584 C-188.3761012 1237.46103103 -188.3761012 1237.46103103 -187.03772229 1229.74354529 C-186.89409379 1228.84488809 -186.75046529 1227.94623088 -186.60248441 1227.02034163 C-186.13151223 1224.09458845 -185.64071022 1221.17256063 -185.1495387 1218.25013709 C-184.8056169 1216.13861203 -184.46299036 1214.02687566 -184.12155408 1211.91494727 C-183.20460275 1206.26450445 -182.27060004 1200.61700469 -181.33342236 1194.96988654 C-180.34909797 1189.01897069 -179.38129668 1183.06537021 -178.41223401 1177.1119535 C-176.83198555 1167.4132064 -175.2438086 1157.71579205 -173.65051526 1148.01918006 C-171.60335523 1135.55343062 -169.58612509 1123.08305348 -167.5870387 1110.60951209 C-167.44064198 1109.69632586 -167.29424527 1108.78313964 -167.14341229 1107.8422811 C-166.56337052 1104.22371063 -165.98350823 1100.60511148 -165.40397519 1096.98645949 C-163.84548037 1087.25576042 -162.27998268 1077.52619266 -160.7120387 1067.79701209 C-160.57339146 1066.93663966 -160.43474423 1066.07626723 -160.29189557 1065.18982291 C-158.21987915 1052.33558966 -156.13421981 1039.48360962 -154.0401637 1026.63294959 C-153.90340977 1025.7936308 -153.76665585 1024.95431201 -153.62575787 1024.08955932 C-152.93958918 1019.87835296 -152.25331137 1015.66716439 -151.56701916 1011.45597816 C-151.432151 1010.62838618 -151.29728284 1009.80079421 -151.15832776 1008.94812369 C-150.88751912 1007.28642482 -150.61668591 1005.62472996 -150.34582776 1003.96303916 C-146.0657822 977.70267766 -141.87641116 951.42900316 -137.74416989 925.14500022 C-134.4132664 903.95854597 -131.03627285 882.78153314 -127.54541272 861.62071204 C-123.5646584 837.47392955 -119.72344188 813.30518243 -115.8761012 789.13685584 C-111.4590527 761.39223077 -107.02028278 733.65223508 -102.45959729 705.93080115 C-99.77145409 689.58845244 -97.12702216 673.23931672 -94.5011012 656.88685584 C-94.31324048 655.71753516 -94.12537976 654.54821448 -93.93182629 653.34345984 C-93.56889195 651.08376867 -93.20622416 648.82403466 -92.84384412 646.56425452 C-92.50030021 644.42346163 -92.15586377 642.28281175 -91.81045789 640.14231849 C-91.0195161 635.22703073 -90.24756933 630.31052895 -89.52356213 625.38490272 C-89.39085919 624.49716163 -89.25815625 623.60942054 -89.12143201 622.6947782 C-88.87672787 621.04960649 -88.6385952 619.40343821 -88.40835828 617.75617957 C-87.59958022 612.36033486 -87.59958022 612.36033486 -85.3761012 610.13685584 C-82.73972487 609.94147897 -80.20863674 609.872793 -77.57119817 609.89076018 C-76.75171761 609.88845249 -75.93223706 609.88614481 -75.08792377 609.88376719 C-72.3122298 609.87842792 -69.53676287 609.88748363 -66.76108044 609.89634681 C-64.7629504 609.89547554 -62.76482058 609.89372602 -60.76669198 609.89116848 C-55.25282002 609.88667539 -49.73902507 609.89472542 -44.22516292 609.9047246 C-38.28785559 609.9133287 -32.3505529 609.9104411 -26.41324109 609.90892005 C-16.11875552 609.90786927 -5.82429343 609.91409651 4.47018558 609.92539573 C15.2700398 609.93721933 26.06988395 609.9449255 36.8697446 609.94710135 C37.54059896 609.94723883 38.21145332 609.94737631 38.90263661 609.94751796 C42.30940042 609.9481946 45.71616424 609.94879738 49.12292807 609.94937171 C73.26925461 609.95357542 97.41556797 609.96705818 121.56188709 609.98597693 C145.02347491 610.00433801 168.48505914 610.01850905 191.94665271 610.02699256 C193.03094272 610.02738714 193.03094272 610.02738714 194.13713759 610.02778969 C201.39622388 610.03042667 208.65531021 610.03297831 215.91439656 610.03546741 C230.70272652 610.04054019 245.49105625 610.04618269 260.27938586 610.05216956 C261.29935895 610.05258143 261.29935895 610.05258143 262.33993756 610.05300162 C307.7679302 610.07141098 353.19591522 610.10314383 398.6238988 610.13685584 C398.00570773 609.2450965 397.38751666 608.35333716 396.75059253 607.43455482 C395.93157438 606.25248565 395.11256976 605.07040712 394.29357654 603.88832068 C393.88706615 603.30199363 393.48055576 602.71566657 393.06172687 602.11157203 C390.22858092 598.02159403 387.43179539 593.91106521 384.6863988 589.76185584 C384.27873279 589.14882606 383.87106677 588.53579627 383.45104724 587.90418983 C381.28800556 584.65093873 379.13230881 581.39289121 376.97936755 578.13294959 C373.07733679 572.23670887 369.16372517 566.42044661 364.84655505 560.81654334 C363.27684898 558.66007813 362.01217067 556.3548936 360.72936755 554.01966834 C358.90058672 550.90492501 356.76395896 548.0103239 354.67468005 545.06654334 C352.2935321 541.6649034 349.98448796 538.21992037 347.6863988 534.76185584 C347.25907459 534.11885535 346.83175037 533.47585486 346.39147693 532.81336951 C345.53943441 531.53029563 344.68770458 530.24701404 343.83630115 528.963516 C341.41811374 525.32016558 338.989265 521.68391649 336.5613988 518.04701209 C335.22329525 516.03715898 333.89027516 514.02391543 332.5613988 512.00794959 C329.60053885 507.52740584 326.64283705 503.08711702 323.3738988 498.82435584 C321.21858592 496.01031462 319.43900213 493.13190107 317.72936755 490.01966834 C315.90058672 486.90492501 313.76395896 484.0103239 311.67468005 481.06654334 C309.2935321 477.6649034 306.98448796 474.21992037 304.6863988 470.76185584 C304.25907459 470.11885535 303.83175037 469.47585486 303.39147693 468.81336951 C302.53943441 467.53029563 301.68770458 466.24701404 300.83630115 464.963516 C298.41811374 461.32016558 295.989265 457.68391649 293.5613988 454.04701209 C292.22329525 452.03715898 290.89027516 450.02391543 289.5613988 448.00794959 C286.60053885 443.52740584 283.64283705 439.08711702 280.3738988 434.82435584 C278.21858592 432.01031462 276.43900213 429.13190107 274.72936755 426.01966834 C272.90058672 422.90492501 270.76395896 420.0103239 268.67468005 417.06654334 C266.29352756 413.66489693 263.98469034 410.21979162 261.6863988 406.76185584 C261.26052478 406.12175574 260.83465076 405.48165565 260.39587146 404.82215858 C258.39713596 401.81493214 256.4037605 398.80426228 254.41686755 395.78919959 C251.06100143 390.7136927 247.63313086 385.76746355 243.9285863 380.94154334 C242.64392346 379.16455462 241.5603455 377.36654252 240.4988988 375.44935584 C238.75735258 372.16786862 238.75735258 372.16786862 236.6238988 369.63685584 C234.71154139 367.24640908 233.28062412 364.79541075 231.79968005 362.12513709 C229.93906743 358.97878551 227.78919822 356.04588586 225.67468005 353.06654334 C223.29352756 349.66489693 220.98469034 346.21979162 218.6863988 342.76185584 C218.26052478 342.12175574 217.83465076 341.48165565 217.39587146 340.82215858 C215.39713596 337.81493214 213.4037605 334.80426228 211.41686755 331.78919959 C208.06100143 326.7136927 204.63313086 321.76746355 200.9285863 316.94154334 C199.64392346 315.16455462 198.5603455 313.36654252 197.4988988 311.44935584 C195.75735258 308.16786862 195.75735258 308.16786862 193.6238988 305.63685584 C191.71154139 303.24640908 190.28062412 300.79541075 188.79968005 298.12513709 C186.93906743 294.97878551 184.78919822 292.04588586 182.67468005 289.06654334 C180.29352756 285.66489693 177.98469034 282.21979162 175.6863988 278.76185584 C175.26052478 278.12175574 174.83465076 277.48165565 174.39587146 276.82215858 C172.39713596 273.81493214 170.4037605 270.80426228 168.41686755 267.78919959 C165.06100143 262.7136927 161.63313086 257.76746355 157.9285863 252.94154334 C156.64392346 251.16455462 155.5603455 249.36654252 154.4988988 247.44935584 C152.75735258 244.16786862 152.75735258 244.16786862 150.6238988 241.63685584 C148.71154139 239.24640908 147.28062412 236.79541075 145.79968005 234.12513709 C143.94143653 230.98279173 141.79470657 228.0535313 139.68249255 225.07826209 C137.25591955 221.61107144 134.90392349 218.09864747 132.5613988 214.57435584 C131.9126781 213.59934119 131.9126781 213.59934119 131.25085193 212.60462928 C129.47185421 209.92798462 127.6973448 207.24863623 125.93249255 204.56263709 C123.22846656 200.45870663 120.41546066 196.46851513 117.4988988 192.51185584 C115.28576709 189.49930392 113.18114356 186.53481879 111.3738988 183.26185584 C109.7360883 180.1374236 109.7360883 180.1374236 107.6238988 177.63685584 C105.65949901 175.1813561 104.20389623 172.63896882 102.69030505 169.89076209 C101.50477766 167.84354589 101.50477766 167.84354589 99.1238988 165.13685584 C96.95600691 162.53538557 95.33192621 160.00179783 93.7098363 157.04310584 C90.05094314 150.62030057 85.58764583 144.64337298 81.3426488 138.60169959 C77.42372475 132.98160623 73.69524346 127.25722851 70.0613988 121.44935584 C68.15955522 118.43740531 66.27381376 115.57560004 63.9363988 112.88685584 C62.13809422 110.74833146 60.88869828 108.97687078 59.5613988 106.57435584 C57.77273048 103.18555596 57.77273048 103.18555596 55.6238988 100.63685584 C53.70105793 98.23330475 52.23580338 95.76404191 50.74499255 93.07826209 C47.03838112 86.65949595 42.59980763 80.66068222 38.3426488 74.60169959 C34.42372475 68.98160623 30.69524346 63.25722851 27.0613988 57.44935584 C25.15955522 54.43740531 23.27381376 51.57560004 20.9363988 48.88685584 C19.13809422 46.74833146 17.88869828 44.97687078 16.5613988 42.57435584 C14.77273048 39.18555596 14.77273048 39.18555596 12.6238988 36.63685584 C10.70105793 34.23330475 9.23580338 31.76404191 7.74499255 29.07826209 C5.03661307 24.38814152 1.96107434 19.89374845 -1.31750745 15.58607459 C-6.82216128 8.25765666 -6.82216128 8.25765666 -6.8136012 4.01185584 C-6.6692262 3.06310584 -6.5248512 2.11435584 -6.3761012 1.13685584 C-4.02239865 -0.03999543 -2.62460512 0.00753457 0 0 Z " fill="#0102F3" transform="translate(275.3761011958122,410.863144159317)"/>
<path d="" fill="#0102F3" transform="translate(0,0)"/>
</svg>
