<svg width="432" height="432" viewBox="0 0 432 432" fill="none" xmlns="http://www.w3.org/2000/svg">
<g filter="url(#filter0_d_109_275)">
<rect x="2" y="2" width="420" height="420" rx="25" fill="#0A1128"/>
</g>
<path d="M131.375 325V301.16H141.391C142.82 301.16 144.047 301.416 145.071 301.928C146.116 302.44 146.916 303.165 147.471 304.104C148.047 305.021 148.335 306.12 148.335 307.4C148.335 308.573 148.025 309.64 147.407 310.6C146.809 311.539 145.924 312.275 144.751 312.808L144.719 311.624C145.743 312.008 146.585 312.52 147.247 313.16C147.929 313.779 148.441 314.504 148.783 315.336C149.124 316.147 149.295 317.011 149.295 317.928C149.295 320.125 148.591 321.853 147.183 323.112C145.775 324.371 143.855 325 141.423 325H131.375ZM134.511 322.12H141.551C142.937 322.12 144.047 321.747 144.879 321C145.711 320.253 146.127 319.24 146.127 317.96C146.127 316.68 145.711 315.667 144.879 314.92C144.047 314.152 142.937 313.768 141.551 313.768H134.511V322.12ZM134.511 310.952H141.327C142.479 310.952 143.407 310.621 144.111 309.96C144.815 309.277 145.167 308.413 145.167 307.368C145.167 306.28 144.815 305.448 144.111 304.872C143.407 304.296 142.479 304.008 141.327 304.008H134.511V310.952ZM159.291 325.384C158.054 325.384 156.934 325.096 155.931 324.52C154.95 323.944 154.182 323.144 153.627 322.12C153.094 321.075 152.827 319.88 152.827 318.536V307.752H155.803V318.216C155.803 319.069 155.974 319.816 156.315 320.456C156.678 321.096 157.168 321.597 157.787 321.96C158.427 322.323 159.152 322.504 159.963 322.504C160.774 322.504 161.488 322.323 162.107 321.96C162.747 321.597 163.238 321.075 163.579 320.392C163.942 319.709 164.123 318.899 164.123 317.96V307.752H167.131V325H164.219V321.64L164.699 321.928C164.294 323.016 163.6 323.869 162.619 324.488C161.659 325.085 160.55 325.384 159.291 325.384ZM171.742 325V307.752H174.718V325H171.742ZM171.742 305V301.16H174.718V305H171.742ZM179.335 325V300.776H182.311V325H179.335ZM194.769 325.384C193.148 325.384 191.686 324.989 190.385 324.2C189.105 323.411 188.092 322.333 187.345 320.968C186.598 319.603 186.225 318.077 186.225 316.392C186.225 314.664 186.598 313.128 187.345 311.784C188.092 310.419 189.105 309.341 190.385 308.552C191.686 307.763 193.148 307.368 194.769 307.368C196.198 307.368 197.468 307.677 198.577 308.296C199.686 308.893 200.561 309.704 201.201 310.728L200.721 311.464V300.776H203.729V325H200.817V321.32L201.201 321.832C200.604 322.963 199.729 323.837 198.577 324.456C197.446 325.075 196.177 325.384 194.769 325.384ZM195.025 322.504C196.113 322.504 197.084 322.237 197.937 321.704C198.79 321.171 199.462 320.445 199.953 319.528C200.465 318.589 200.721 317.544 200.721 316.392C200.721 315.219 200.465 314.173 199.953 313.256C199.462 312.317 198.79 311.581 197.937 311.048C197.084 310.515 196.113 310.248 195.025 310.248C193.958 310.248 192.988 310.525 192.113 311.08C191.26 311.613 190.588 312.339 190.097 313.256C189.606 314.152 189.361 315.197 189.361 316.392C189.361 317.544 189.606 318.589 190.097 319.528C190.588 320.445 191.26 321.171 192.113 321.704C192.966 322.237 193.937 322.504 195.025 322.504ZM208.335 325V307.752H211.311V325H208.335ZM208.335 305V301.16H211.311V305H208.335ZM215.929 325V307.752H218.841V311.112L218.361 310.824C218.788 309.736 219.47 308.893 220.409 308.296C221.369 307.677 222.489 307.368 223.769 307.368C225.006 307.368 226.105 307.645 227.065 308.2C228.046 308.755 228.814 309.523 229.369 310.504C229.945 311.485 230.233 312.595 230.233 313.832V325H227.225V314.792C227.225 313.832 227.054 313.021 226.713 312.36C226.372 311.699 225.881 311.187 225.241 310.824C224.622 310.44 223.908 310.248 223.097 310.248C222.286 310.248 221.561 310.44 220.921 310.824C220.302 311.187 219.812 311.709 219.449 312.392C219.086 313.053 218.905 313.853 218.905 314.792V325H215.929ZM242.716 332.04C241.5 332.04 240.369 331.848 239.324 331.464C238.3 331.08 237.414 330.547 236.668 329.864C235.942 329.203 235.388 328.424 235.004 327.528L237.788 326.248C238.086 327.059 238.652 327.741 239.484 328.296C240.337 328.872 241.404 329.16 242.684 329.16C243.665 329.16 244.55 328.968 245.34 328.584C246.15 328.221 246.79 327.667 247.26 326.92C247.729 326.195 247.964 325.309 247.964 324.264V320.392L248.508 320.968C247.91 322.141 247.046 323.037 245.916 323.656C244.806 324.275 243.58 324.584 242.236 324.584C240.614 324.584 239.164 324.211 237.884 323.464C236.604 322.696 235.601 321.661 234.876 320.36C234.15 319.037 233.788 317.576 233.788 315.976C233.788 314.355 234.15 312.893 234.876 311.592C235.601 310.291 236.593 309.267 237.852 308.52C239.132 307.752 240.582 307.368 242.204 307.368C243.548 307.368 244.764 307.677 245.852 308.296C246.961 308.893 247.846 309.725 248.508 310.792L248.06 311.592V307.752H250.972V324.264C250.972 325.757 250.62 327.091 249.916 328.264C249.212 329.437 248.23 330.355 246.972 331.016C245.734 331.699 244.316 332.04 242.716 332.04ZM242.492 321.704C243.516 321.704 244.433 321.448 245.244 320.936C246.076 320.424 246.737 319.741 247.228 318.888C247.718 318.013 247.964 317.043 247.964 315.976C247.964 314.931 247.718 313.971 247.228 313.096C246.737 312.221 246.076 311.528 245.244 311.016C244.433 310.504 243.516 310.248 242.492 310.248C241.446 310.248 240.497 310.504 239.644 311.016C238.79 311.528 238.118 312.221 237.628 313.096C237.158 313.949 236.924 314.909 236.924 315.976C236.924 317.043 237.158 318.013 237.628 318.888C238.118 319.741 238.78 320.424 239.612 320.936C240.465 321.448 241.425 321.704 242.492 321.704ZM261.761 325.384C260.033 325.384 258.529 324.957 257.249 324.104C255.969 323.251 255.063 322.099 254.529 320.648L256.897 319.496C257.388 320.52 258.06 321.331 258.913 321.928C259.767 322.525 260.716 322.824 261.761 322.824C262.7 322.824 263.479 322.6 264.097 322.152C264.716 321.704 265.025 321.117 265.025 320.392C265.025 319.88 264.876 319.475 264.577 319.176C264.3 318.856 263.959 318.611 263.553 318.44C263.148 318.248 262.775 318.109 262.433 318.024L259.841 317.288C258.284 316.84 257.143 316.2 256.417 315.368C255.713 314.536 255.361 313.565 255.361 312.456C255.361 311.432 255.617 310.547 256.129 309.8C256.663 309.032 257.377 308.435 258.273 308.008C259.191 307.581 260.215 307.368 261.345 307.368C262.86 307.368 264.215 307.752 265.409 308.52C266.625 309.288 267.489 310.365 268.001 311.752L265.569 312.872C265.185 311.976 264.609 311.272 263.841 310.76C263.073 310.227 262.209 309.96 261.249 309.96C260.375 309.96 259.681 310.184 259.169 310.632C258.657 311.059 258.401 311.603 258.401 312.264C258.401 312.755 258.529 313.16 258.785 313.48C259.041 313.779 259.351 314.013 259.713 314.184C260.076 314.333 260.428 314.461 260.769 314.568L263.585 315.4C264.993 315.805 266.081 316.435 266.849 317.288C267.639 318.141 268.033 319.165 268.033 320.36C268.033 321.32 267.767 322.184 267.233 322.952C266.7 323.72 265.964 324.317 265.025 324.744C264.087 325.171 262.999 325.384 261.761 325.384ZM284.084 325.384C282.74 325.384 281.546 325.139 280.5 324.648C279.455 324.136 278.634 323.421 278.036 322.504C277.46 321.565 277.172 320.488 277.172 319.272C277.172 318.227 277.364 317.309 277.748 316.52C278.132 315.709 278.602 315.016 279.156 314.44C279.732 313.864 280.308 313.384 280.884 313C281.482 312.595 281.972 312.275 282.356 312.04L284.18 310.984C284.799 310.621 285.396 310.227 285.972 309.8C286.548 309.373 287.028 308.883 287.412 308.328C287.796 307.752 287.988 307.112 287.988 306.408C287.988 305.576 287.711 304.883 287.156 304.328C286.602 303.773 285.908 303.496 285.076 303.496C284.244 303.496 283.551 303.773 282.996 304.328C282.442 304.883 282.164 305.587 282.164 306.44C282.164 307.016 282.303 307.581 282.58 308.136C282.858 308.691 283.199 309.224 283.604 309.736C284.01 310.227 284.415 310.685 284.82 311.112L297.78 325H293.844L282.484 313.032C281.972 312.499 281.46 311.912 280.948 311.272C280.436 310.632 279.999 309.928 279.636 309.16C279.295 308.371 279.124 307.507 279.124 306.568C279.124 305.416 279.391 304.413 279.924 303.56C280.479 302.685 281.204 302.003 282.1 301.512C282.996 301.021 283.988 300.776 285.076 300.776C286.143 300.776 287.114 301.021 287.988 301.512C288.884 301.981 289.599 302.643 290.132 303.496C290.666 304.349 290.932 305.331 290.932 306.44C290.932 307.571 290.666 308.563 290.132 309.416C289.599 310.248 288.959 310.963 288.212 311.56C287.466 312.136 286.762 312.616 286.1 313L284.308 314.088C283.775 314.429 283.21 314.835 282.612 315.304C282.015 315.752 281.503 316.296 281.076 316.936C280.65 317.555 280.436 318.312 280.436 319.208C280.436 320.275 280.778 321.107 281.46 321.704C282.164 322.301 283.071 322.6 284.18 322.6C284.884 322.6 285.514 322.483 286.068 322.248C286.623 322.013 287.114 321.704 287.54 321.32C287.988 320.936 288.383 320.52 288.724 320.072C289.066 319.603 289.386 319.144 289.684 318.696L293.364 313.224H296.788L292.468 319.816C292.148 320.349 291.743 320.936 291.252 321.576C290.762 322.216 290.186 322.824 289.524 323.4C288.863 323.976 288.084 324.456 287.188 324.84C286.314 325.203 285.279 325.384 284.084 325.384ZM110.851 365.384C109.165 365.384 107.608 365.085 106.179 364.488C104.771 363.869 103.533 363.005 102.467 361.896C101.421 360.787 100.611 359.485 100.035 357.992C99.4588 356.499 99.1708 354.867 99.1708 353.096C99.1708 351.304 99.4588 349.661 100.035 348.168C100.611 346.675 101.421 345.373 102.467 344.264C103.512 343.155 104.749 342.301 106.179 341.704C107.608 341.085 109.165 340.776 110.851 340.776C112.493 340.776 113.965 341.064 115.267 341.64C116.589 342.216 117.699 342.963 118.595 343.88C119.512 344.797 120.163 345.779 120.547 346.824L117.667 348.136C117.112 346.813 116.248 345.747 115.075 344.936C113.901 344.104 112.493 343.688 110.851 343.688C109.187 343.688 107.704 344.083 106.403 344.872C105.123 345.661 104.12 346.76 103.395 348.168C102.669 349.576 102.307 351.219 102.307 353.096C102.307 354.952 102.669 356.584 103.395 357.992C104.12 359.4 105.123 360.499 106.403 361.288C107.704 362.077 109.187 362.472 110.851 362.472C112.493 362.472 113.901 362.067 115.075 361.256C116.248 360.424 117.112 359.347 117.667 358.024L120.547 359.336C120.163 360.381 119.512 361.363 118.595 362.28C117.699 363.197 116.589 363.944 115.267 364.52C113.965 365.096 112.493 365.384 110.851 365.384ZM132.34 365.384C130.676 365.384 129.172 365 127.828 364.232C126.484 363.443 125.417 362.365 124.628 361C123.838 359.635 123.444 358.088 123.444 356.36C123.444 354.632 123.828 353.096 124.596 351.752C125.385 350.408 126.452 349.341 127.796 348.552C129.14 347.763 130.654 347.368 132.34 347.368C134.004 347.368 135.508 347.763 136.852 348.552C138.196 349.32 139.252 350.376 140.02 351.72C140.809 353.064 141.204 354.611 141.204 356.36C141.204 358.109 140.798 359.667 139.988 361.032C139.177 362.376 138.1 363.443 136.756 364.232C135.433 365 133.961 365.384 132.34 365.384ZM132.34 362.504C133.406 362.504 134.366 362.237 135.22 361.704C136.094 361.171 136.777 360.435 137.268 359.496C137.78 358.557 138.036 357.512 138.036 356.36C138.036 355.187 137.78 354.152 137.268 353.256C136.777 352.339 136.094 351.613 135.22 351.08C134.366 350.525 133.406 350.248 132.34 350.248C131.252 350.248 130.27 350.525 129.396 351.08C128.542 351.613 127.86 352.339 127.348 353.256C126.836 354.152 126.58 355.187 126.58 356.36C126.58 357.512 126.836 358.557 127.348 359.496C127.86 360.435 128.542 361.171 129.396 361.704C130.27 362.237 131.252 362.504 132.34 362.504ZM145.085 365V347.752H147.997V351.112L147.517 350.824C147.944 349.736 148.627 348.893 149.565 348.296C150.525 347.677 151.645 347.368 152.925 347.368C154.163 347.368 155.261 347.645 156.221 348.2C157.203 348.755 157.971 349.523 158.525 350.504C159.101 351.485 159.389 352.595 159.389 353.832V365H156.381V354.792C156.381 353.832 156.211 353.021 155.869 352.36C155.528 351.699 155.037 351.187 154.397 350.824C153.779 350.44 153.064 350.248 152.253 350.248C151.443 350.248 150.717 350.44 150.077 350.824C149.459 351.187 148.968 351.709 148.605 352.392C148.243 353.053 148.061 353.853 148.061 354.792V365H145.085ZM171.488 365.384C169.866 365.384 168.405 364.989 167.104 364.2C165.824 363.411 164.81 362.333 164.064 360.968C163.317 359.603 162.944 358.077 162.944 356.392C162.944 354.664 163.317 353.128 164.064 351.784C164.81 350.419 165.824 349.341 167.104 348.552C168.405 347.763 169.866 347.368 171.488 347.368C172.917 347.368 174.186 347.677 175.296 348.296C176.405 348.893 177.28 349.704 177.92 350.728L177.44 351.464V340.776H180.448V365H177.536V361.32L177.92 361.832C177.322 362.963 176.448 363.837 175.296 364.456C174.165 365.075 172.896 365.384 171.488 365.384ZM171.744 362.504C172.832 362.504 173.802 362.237 174.656 361.704C175.509 361.171 176.181 360.445 176.672 359.528C177.184 358.589 177.44 357.544 177.44 356.392C177.44 355.219 177.184 354.173 176.672 353.256C176.181 352.317 175.509 351.581 174.656 351.048C173.802 350.515 172.832 350.248 171.744 350.248C170.677 350.248 169.706 350.525 168.832 351.08C167.978 351.613 167.306 352.339 166.816 353.256C166.325 354.152 166.08 355.197 166.08 356.392C166.08 357.544 166.325 358.589 166.816 359.528C167.306 360.445 167.978 361.171 168.832 361.704C169.685 362.237 170.656 362.504 171.744 362.504ZM193.246 365.384C191.582 365.384 190.078 365 188.734 364.232C187.39 363.443 186.323 362.365 185.534 361C184.745 359.635 184.35 358.088 184.35 356.36C184.35 354.632 184.734 353.096 185.502 351.752C186.291 350.408 187.358 349.341 188.702 348.552C190.046 347.763 191.561 347.368 193.246 347.368C194.91 347.368 196.414 347.763 197.758 348.552C199.102 349.32 200.158 350.376 200.926 351.72C201.715 353.064 202.11 354.611 202.11 356.36C202.11 358.109 201.705 359.667 200.894 361.032C200.083 362.376 199.006 363.443 197.662 364.232C196.339 365 194.867 365.384 193.246 365.384ZM193.246 362.504C194.313 362.504 195.273 362.237 196.126 361.704C197.001 361.171 197.683 360.435 198.174 359.496C198.686 358.557 198.942 357.512 198.942 356.36C198.942 355.187 198.686 354.152 198.174 353.256C197.683 352.339 197.001 351.613 196.126 351.08C195.273 350.525 194.313 350.248 193.246 350.248C192.158 350.248 191.177 350.525 190.302 351.08C189.449 351.613 188.766 352.339 188.254 353.256C187.742 354.152 187.486 355.187 187.486 356.36C187.486 357.512 187.742 358.557 188.254 359.496C188.766 360.435 189.449 361.171 190.302 361.704C191.177 362.237 192.158 362.504 193.246 362.504ZM205.992 365V347.752H208.904V351.272L208.488 350.728C208.914 349.64 209.597 348.808 210.536 348.232C211.474 347.656 212.53 347.368 213.704 347.368C215.048 347.368 216.253 347.741 217.32 348.488C218.408 349.235 219.154 350.216 219.56 351.432L218.728 351.464C219.176 350.12 219.933 349.107 221 348.424C222.066 347.72 223.25 347.368 224.552 347.368C225.746 347.368 226.824 347.645 227.784 348.2C228.765 348.755 229.544 349.523 230.12 350.504C230.696 351.485 230.984 352.595 230.984 353.832V365H227.976V354.792C227.976 353.832 227.805 353.021 227.464 352.36C227.122 351.699 226.653 351.187 226.056 350.824C225.48 350.44 224.797 350.248 224.008 350.248C223.24 350.248 222.546 350.44 221.928 350.824C221.33 351.187 220.85 351.709 220.488 352.392C220.146 353.053 219.976 353.853 219.976 354.792V365H216.968V354.792C216.968 353.832 216.797 353.021 216.456 352.36C216.114 351.699 215.645 351.187 215.048 350.824C214.472 350.44 213.789 350.248 213 350.248C212.232 350.248 211.538 350.44 210.92 350.824C210.322 351.187 209.842 351.709 209.48 352.392C209.138 353.053 208.968 353.853 208.968 354.792V365H205.992ZM235.21 365V347.752H238.186V365H235.21ZM235.21 345V341.16H238.186V345H235.21ZM242.804 365V347.752H245.716V351.112L245.236 350.824C245.663 349.736 246.345 348.893 247.284 348.296C248.244 347.677 249.364 347.368 250.644 347.368C251.881 347.368 252.98 347.645 253.94 348.2C254.921 348.755 255.689 349.523 256.244 350.504C256.82 351.485 257.108 352.595 257.108 353.832V365H254.1V354.792C254.1 353.832 253.929 353.021 253.588 352.36C253.247 351.699 252.756 351.187 252.116 350.824C251.497 350.44 250.783 350.248 249.972 350.248C249.161 350.248 248.436 350.44 247.796 350.824C247.177 351.187 246.687 351.709 246.324 352.392C245.961 353.053 245.78 353.853 245.78 354.792V365H242.804ZM261.367 365V347.752H264.343V365H261.367ZM261.367 345V341.16H264.343V345H261.367ZM275.072 365.384C273.835 365.384 272.715 365.096 271.712 364.52C270.731 363.944 269.963 363.144 269.408 362.12C268.875 361.075 268.608 359.88 268.608 358.536V347.752H271.584V358.216C271.584 359.069 271.755 359.816 272.096 360.456C272.459 361.096 272.95 361.597 273.568 361.96C274.208 362.323 274.934 362.504 275.744 362.504C276.555 362.504 277.27 362.323 277.888 361.96C278.528 361.597 279.019 361.075 279.36 360.392C279.723 359.709 279.904 358.899 279.904 357.96V347.752H282.912V365H280V361.64L280.48 361.928C280.075 363.016 279.382 363.869 278.4 364.488C277.44 365.085 276.331 365.384 275.072 365.384ZM287.523 365V347.752H290.435V351.272L290.019 350.728C290.445 349.64 291.128 348.808 292.067 348.232C293.005 347.656 294.061 347.368 295.235 347.368C296.579 347.368 297.784 347.741 298.851 348.488C299.939 349.235 300.685 350.216 301.091 351.432L300.259 351.464C300.707 350.12 301.464 349.107 302.531 348.424C303.597 347.72 304.781 347.368 306.083 347.368C307.277 347.368 308.355 347.645 309.315 348.2C310.296 348.755 311.075 349.523 311.651 350.504C312.227 351.485 312.515 352.595 312.515 353.832V365H309.507V354.792C309.507 353.832 309.336 353.021 308.995 352.36C308.653 351.699 308.184 351.187 307.587 350.824C307.011 350.44 306.328 350.248 305.539 350.248C304.771 350.248 304.077 350.44 303.459 350.824C302.861 351.187 302.381 351.709 302.019 352.392C301.677 353.053 301.507 353.853 301.507 354.792V365H298.499V354.792C298.499 353.832 298.328 353.021 297.987 352.36C297.645 351.699 297.176 351.187 296.579 350.824C296.003 350.44 295.32 350.248 294.531 350.248C293.763 350.248 293.069 350.44 292.451 350.824C291.853 351.187 291.373 351.709 291.011 352.392C290.669 353.053 290.499 353.853 290.499 354.792V365H287.523ZM322.918 365.384C321.19 365.384 319.686 364.957 318.406 364.104C317.126 363.251 316.219 362.099 315.686 360.648L318.054 359.496C318.544 360.52 319.216 361.331 320.07 361.928C320.923 362.525 321.872 362.824 322.918 362.824C323.856 362.824 324.635 362.6 325.254 362.152C325.872 361.704 326.182 361.117 326.182 360.392C326.182 359.88 326.032 359.475 325.734 359.176C325.456 358.856 325.115 358.611 324.71 358.44C324.304 358.248 323.931 358.109 323.59 358.024L320.998 357.288C319.44 356.84 318.299 356.2 317.574 355.368C316.87 354.536 316.518 353.565 316.518 352.456C316.518 351.432 316.774 350.547 317.286 349.8C317.819 349.032 318.534 348.435 319.43 348.008C320.347 347.581 321.371 347.368 322.502 347.368C324.016 347.368 325.371 347.752 326.566 348.52C327.782 349.288 328.646 350.365 329.158 351.752L326.726 352.872C326.342 351.976 325.766 351.272 324.998 350.76C324.23 350.227 323.366 349.96 322.406 349.96C321.531 349.96 320.838 350.184 320.326 350.632C319.814 351.059 319.558 351.603 319.558 352.264C319.558 352.755 319.686 353.16 319.942 353.48C320.198 353.779 320.507 354.013 320.87 354.184C321.232 354.333 321.584 354.461 321.926 354.568L324.742 355.4C326.15 355.805 327.238 356.435 328.006 357.288C328.795 358.141 329.19 359.165 329.19 360.36C329.19 361.32 328.923 362.184 328.39 362.952C327.856 363.72 327.12 364.317 326.182 364.744C325.243 365.171 324.155 365.384 322.918 365.384Z" fill="#FEFCFB"/>
<path d="M286.222 111.444H236.222V250.333H297.333V122.556C297.333 119.609 296.163 116.783 294.079 114.699C291.995 112.615 289.169 111.444 286.222 111.444ZM258.444 205.889H247.333V194.778H258.444V205.889ZM258.444 178.111H247.333V167H258.444V178.111ZM258.444 150.333H247.333V139.222H258.444V150.333ZM280.667 205.889H269.556V194.778H280.667V205.889ZM280.667 178.111H269.556V167H280.667V178.111ZM280.667 150.333H269.556V139.222H280.667V150.333Z" fill="#FEFCFB"/>
<path d="M213.333 83.6667H148C144.876 83.6667 141.881 84.9075 139.672 87.1163C137.463 89.325 136.222 92.3208 136.222 95.4444V250.333H164V233.667H197.333V250.333H225.111V95.4444C225.111 92.3208 223.87 89.325 221.661 87.1163C219.453 84.9075 216.457 83.6667 213.333 83.6667ZM164 205.889H152.889V194.778H164V205.889ZM164 178.111H152.889V167H164V178.111ZM164 150.333H152.889V139.222H164V150.333ZM164 122.556H152.889V111.444H164V122.556ZM186.222 205.889H175.111V194.778H186.222V205.889ZM186.222 178.111H175.111V167H186.222V178.111ZM186.222 150.333H175.111V139.222H186.222V150.333ZM186.222 122.556H175.111V111.444H186.222V122.556ZM208.444 205.889H197.333V194.778H208.444V205.889ZM208.444 178.111H197.333V167H208.444V178.111ZM208.444 150.333H197.333V139.222H208.444V150.333ZM208.444 122.556H197.333V111.444H208.444V122.556Z" fill="#FEFCFB"/>
<defs>
<filter id="filter0_d_109_275" x="0" y="0" width="432" height="432" filterUnits="userSpaceOnUse" color-interpolation-filters="sRGB">
<feFlood flood-opacity="0" result="BackgroundImageFix"/>
<feColorMatrix in="SourceAlpha" type="matrix" values="0 0 0 0 0 0 0 0 0 0 0 0 0 0 0 0 0 0 127 0" result="hardAlpha"/>
<feMorphology radius="2" operator="dilate" in="SourceAlpha" result="effect1_dropShadow_109_275"/>
<feOffset dx="4" dy="4"/>
<feGaussianBlur stdDeviation="2"/>
<feComposite in2="hardAlpha" operator="out"/>
<feColorMatrix type="matrix" values="0 0 0 0 0 0 0 0 0 0 0 0 0 0 0 0 0 0 0.25 0"/>
<feBlend mode="normal" in2="BackgroundImageFix" result="effect1_dropShadow_109_275"/>
<feBlend mode="normal" in="SourceGraphic" in2="effect1_dropShadow_109_275" result="shape"/>
</filter>
</defs>
</svg>

